<?xml version="1.0" encoding="utf-8"?>
<!-- Generator: Adobe Illustrator 22.1.0, SVG Export Plug-In . SVG Version: 6.00 Build 0)  -->
<svg version="1.1" id="Layer_1" xmlns="http://www.w3.org/2000/svg" xmlns:xlink="http://www.w3.org/1999/xlink" x="0px" y="0px"
	 width="1683.0166016px" height="423.1224976px" viewBox="0 0 1683.0166016 423.1224976"
	 enable-background="new 0 0 1683.0166016 423.1224976" xml:space="preserve">
<rect x="10.3730221" y="328.1263733" fill="#007CA3" width="320.0777893" height="18.3999996"/>
<rect x="346.5109253" y="328.1263733" fill="#94BA1D" width="320.0777893" height="18.3999996"/>
<rect x="680.0286865" y="328.1263733" fill="#F7DC00" width="320.0777893" height="18.3999996"/>
<rect x="1016.166626" y="328.1263733" fill="#FF8000" width="320.0777893" height="18.3999996"/>
<rect x="1352.5657959" y="328.1263733" fill="#BA2B31" width="320.0777893" height="18.3999996"/>
<g>
	<path fill="#636363" d="M262.5614929,210.7958527l20.6652832-45.6259766
		c0.2039795-0.4067383,0.5438232-0.7456055,1.1556396-0.7456055h0.6798096c0.6118164,0,0.9516602,0.3388672,1.1556396,0.7456055
		l20.5292969,45.6259766c0.4078369,0.8813477-0.1359863,1.7626953-1.1556396,1.7626953h-2.7191162
		c-0.6118164,0-1.0196533-0.4067383-1.1556396-0.7456055l-5.0303955-11.1860352h-24.1320801l-4.9624023,11.1860352
		c-0.1359863,0.3388672-0.5438232,0.7456055-1.1556396,0.7456055h-2.7191162
		C262.6974792,212.558548,262.153656,211.6772003,262.5614929,210.7958527z M294.8510437,196.4232941
		c-3.3309326-7.3896484-6.5938721-14.847168-9.9248047-22.2368164h-0.5438232l-9.9248047,22.2368164H294.8510437z"/>
	<path fill="#636363" d="M326.1919861,205.4398956c0.3398438-0.4067383,0.6798096-0.8813477,1.0196533-1.2880859
		c0.6798096-0.8813477,1.4274902-1.4233398,2.3792725-0.6098633c0.4758301,0.4067383,5.4382324,5.1523438,11.4882812,5.1523438
		c5.5061035,0,9.1090088-3.4575195,9.1090088-7.4575195c0-4.6777344-4.0787354-7.4575195-11.8961182-10.7114258
		c-7.4776611-3.2543945-11.9641113-6.3051758-11.9641113-14.0336914c0-4.6098633,3.6707764-12.0673828,14.479248-12.0673828
		c6.6618652,0,11.6242676,3.4575195,11.6242676,3.4575195c0.4078369,0.203125,1.2235107,1.0170898,0.4078369,2.3051758
		c-0.2719727,0.4067383-0.5438232,0.8813477-0.8157959,1.2880859c-0.6118164,0.9487305-1.2915039,1.2202148-2.3791504,0.6098633
		c-0.4758301-0.2709961-4.7585449-3.1186523-8.9051514-3.1186523c-7.2056885,0-9.3809814,4.6103516-9.3809814,7.4575195
		c0,4.5424805,3.4669189,7.1865234,9.177002,9.559082c9.177124,3.7290039,15.0911865,7.1865234,15.0911865,15.0507812
		c0,7.050293-6.7298584,12.2026367-14.6832275,12.2026367c-8.0214844,0-13.4597168-4.6777344-14.3433838-5.4912109
		C326.0559998,207.270462,325.3761902,206.7279816,326.1919861,205.4398956z"/>
	<path fill="#636363" d="M364.8735046,166.3900909c0-0.6777344,0.6118164-1.2880859,1.291626-1.2880859h2.5831299
		c0.7478027,0,1.291626,0.6103516,1.291626,1.2880859v28.2705078c0,7.7285156,4.826416,13.7626953,12.7797852,13.7626953
		c8.0214844,0,12.9158936-5.8984375,12.9158936-13.6269531v-28.40625c0-0.6777344,0.5438232-1.2880859,1.2915039-1.2880859
		h2.5831299c0.6798096,0,1.291626,0.6103516,1.291626,1.2880859v28.6772461
		c0,10.3051758-7.3415527,18.1689453-18.0821533,18.1689453c-10.6724854,0-17.946167-7.8637695-17.946167-18.1689453V166.3900909z"
		/>
	<path fill="#636363" d="M407.1593933,210.7958527l20.6652832-45.6259766
		c0.2039795-0.4067383,0.5438232-0.7456055,1.1556396-0.7456055h0.6798096c0.6118164,0,0.9516602,0.3388672,1.1556396,0.7456055
		l20.5292969,45.6259766c0.4078369,0.8813477-0.1359863,1.7626953-1.1556396,1.7626953h-2.7191162
		c-0.6118164,0-1.0196533-0.4067383-1.1556396-0.7456055l-5.0303955-11.1860352h-24.1320801l-4.9624023,11.1860352
		c-0.1359863,0.3388672-0.5438232,0.7456055-1.1556396,0.7456055h-2.7191162
		C407.2953796,212.558548,406.7515564,211.6772003,407.1593933,210.7958527z M439.4489441,196.4232941
		c-3.3309326-7.3896484-6.5938721-14.847168-9.9248047-22.2368164h-0.5438232l-9.9248047,22.2368164H439.4489441z"/>
	<path fill="#636363" d="M473.8489685,166.3900909c0-0.6777344,0.5438232-1.2880859,1.291626-1.2880859h14.887085
		c8.293335,0,13.9355469,5.355957,13.9355469,12.4746094c0,5.2202148-3.4669189,9.0166016-6.6618652,10.847168
		c3.6027832,1.4912109,8.1573486,4.8134766,8.1573486,11.050293c0,7.5932617-6.0500488,13.0844727-14.8192139,13.0844727
		h-15.4989014c-0.7478027,0-1.291626-0.6103516-1.291626-1.2880859V166.3900909z M491.1833191,208.0160675
		c4.9624023,0,8.5653076-3.7285156,8.5653076-8.6098633c0-4.8134766-4.4185791-8.3383789-9.7209473-8.3383789h-11.2163086
		v16.9482422H491.1833191z M490.0276794,186.3896027c5.234375,0,8.1574707-3.7285156,8.1574707-8.4741211
		c0-4.8813477-2.9230957-8.1352539-8.1574707-8.1352539h-11.0803223v16.609375H490.0276794z"/>
	<path fill="#636363" d="M516.3383179,166.3900909c0-0.6777344,0.6118164-1.2880859,1.291626-1.2880859h2.7191162
		c0.6798096,0,1.291626,0.6103516,1.291626,1.2880859v44.8803711c0,0.6777344-0.6118164,1.2880859-1.291626,1.2880859h-2.7191162
		c-0.6798096,0-1.291626-0.6103516-1.291626-1.2880859V166.3900909z"/>
	<path fill="#636363" d="M556.4467163,164.4242706c13.5955811,0,24.4720459,10.9150391,24.4720459,24.4741211
		c0,13.5585938-10.8764648,24.3378906-24.4720459,24.3378906s-24.4040527-10.7792969-24.4040527-24.3378906
		C532.0426636,175.3393097,542.8511353,164.4242706,556.4467163,164.4242706z M556.4467163,208.4906769
		c10.8084717,0,19.713501-8.8129883,19.713501-19.5922852c0-10.7797852-8.9050293-19.7285156-19.713501-19.7285156
		s-19.6456299,8.9487305-19.6456299,19.7285156C536.8010864,199.6776886,545.6382446,208.4906769,556.4467163,208.4906769z"/>
	<path fill="#636363" d="M606.4147339,166.3900909c0-0.6777344,0.5438232-1.2880859,1.291626-1.2880859h26.7833252
		c0.7476807,0,1.2915039,0.6103516,1.2915039,1.2880859v1.9663086c0,0.6777344-0.5438232,1.2880859-1.2915039,1.2880859h-22.8405762
		v16.5419922h19.5096436c0.6796875,0,1.2915039,0.6098633,1.2915039,1.2880859v1.9658203
		c0,0.7460938-0.6118164,1.2880859-1.2915039,1.2880859h-19.5096436v17.2875977h22.8405762
		c0.7476807,0,1.2915039,0.6103516,1.2915039,1.2885742v1.9658203c0,0.6777344-0.5438232,1.2880859-1.2915039,1.2880859h-26.7833252
		c-0.7478027,0-1.291626-0.6103516-1.291626-1.2880859V166.3900909z"/>
	<path fill="#636363" d="M643.6013794,205.4398956c0.3398438-0.4067383,0.6798096-0.8813477,1.0196533-1.2880859
		c0.6798096-0.8813477,1.4274902-1.4233398,2.3792725-0.6098633c0.4758301,0.4067383,5.4382324,5.1523438,11.4882812,5.1523438
		c5.5061035,0,9.1090088-3.4575195,9.1090088-7.4575195c0-4.6777344-4.0787354-7.4575195-11.8961182-10.7114258
		c-7.4776611-3.2543945-11.9641113-6.3051758-11.9641113-14.0336914c0-4.6098633,3.6707764-12.0673828,14.479248-12.0673828
		c6.6618652,0,11.6242676,3.4575195,11.6242676,3.4575195c0.4078369,0.203125,1.2235107,1.0170898,0.4078369,2.3051758
		c-0.2719727,0.4067383-0.5438232,0.8813477-0.8157959,1.2880859c-0.6118164,0.9487305-1.2915039,1.2202148-2.3791504,0.6098633
		c-0.4758301-0.2709961-4.7585449-3.1186523-8.9051514-3.1186523c-7.2056885,0-9.3809814,4.6103516-9.3809814,7.4575195
		c0,4.5424805,3.4669189,7.1865234,9.177002,9.559082c9.177124,3.7290039,15.0911865,7.1865234,15.0911865,15.0507812
		c0,7.050293-6.7298584,12.2026367-14.6832275,12.2026367c-8.0214844,0-13.4597168-4.6777344-14.3433838-5.4912109
		C643.4653931,207.270462,642.7855835,206.7279816,643.6013794,205.4398956z"/>
	<path fill="#636363" d="M689.6245728,169.6444855h-11.828125c-0.7478027,0-1.291626-0.6103516-1.291626-1.2880859v-1.9663086
		c0-0.6777344,0.5438232-1.2880859,1.291626-1.2880859h28.8226318c0.7476807,0,1.2915039,0.6103516,1.2915039,1.2880859v1.9663086
		c0,0.6777344-0.5438232,1.2880859-1.2915039,1.2880859h-11.8282471v41.6259766
		c0,0.6777344-0.6118164,1.2880859-1.2915039,1.2880859h-2.583252c-0.6796875,0-1.2915039-0.6103516-1.2915039-1.2880859
		V169.6444855z"/>
	<path fill="#636363" d="M706.2814331,210.7958527l20.6652832-45.6259766
		c0.2039795-0.4067383,0.5438232-0.7456055,1.1556396-0.7456055h0.6798096c0.6118164,0,0.9516602,0.3388672,1.1556396,0.7456055
		l20.5292969,45.6259766c0.4078369,0.8813477-0.1359863,1.7626953-1.1556396,1.7626953h-2.7191162
		c-0.6118164,0-1.0196533-0.4067383-1.1556396-0.7456055l-5.0303955-11.1860352H716.274231l-4.9624023,11.1860352
		c-0.1359863,0.3388672-0.5438232,0.7456055-1.1556396,0.7456055h-2.7191162
		C706.4174194,212.558548,705.8735962,211.6772003,706.2814331,210.7958527z M738.5709839,196.4232941
		c-3.3309326-7.3896484-6.5938721-14.847168-9.9248047-22.2368164h-0.5438232l-9.9248047,22.2368164H738.5709839z
		 M721.5764771,157.9838409c-0.2718506-0.5424805,0-1.0849609,0.4078369-1.2880859l10.1967773-5.6948242
		c0.4078369-0.2714844,1.4274902-0.4067383,1.767334,0.203125l1.2236328,2.440918
		c0.2719727,0.5424805,0.1359863,1.2202148-0.4078369,1.4233398l-10.944458,4.5424805
		c-0.9516602,0.4067383-1.291626,0.4067383-1.5634766-0.1357422L721.5764771,157.9838409z"/>
</g>
<g>
	<path fill="#636363" d="M396.3842468,240.5849152c-0.4078369-0.8813477,0.1359863-1.7626953,1.1556396-1.7626953h6.9337158
		c0.6118164,0,1.0196533,0.4067383,1.1556396,0.7460938l13.0517578,29.1513519h0.4758301l13.0517578-29.1513519
		c0.1359863-0.3393555,0.5438232-0.7460938,1.1556396-0.7460938h6.9337158c1.0196533,0,1.5634766,0.8813477,1.1556396,1.7626953
		l-21.0731201,45.6259613c-0.2039795,0.4067383-0.5438232,0.7456055-1.1556396,0.7456055h-0.6798096
		c-0.6118164,0-0.9516602-0.3388672-1.1556396-0.7456055L396.3842468,240.5849152z"/>
	<path fill="#636363" d="M447.6426697,240.1103058c0-0.6777344,0.5438232-1.2880859,1.2915039-1.2880859h27.6669922
		c0.7478027,0,1.291626,0.6103516,1.291626,1.2880859v5.5595703c0,0.6777344-0.5438232,1.2880859-1.291626,1.2880859h-20.12146
		v11.1181488h16.7905273c0.6798096,0,1.291626,0.6103516,1.291626,1.2880859v5.6269531
		c0,0.7456055-0.6118164,1.2880859-1.291626,1.2880859h-16.7905273v11.8642578h20.12146
		c0.7478027,0,1.291626,0.6098633,1.291626,1.2880859v5.559082c0,0.6777344-0.5438232,1.2880859-1.291626,1.2880859h-27.6669922
		c-0.7476807,0-1.2915039-0.6103516-1.2915039-1.2880859V240.1103058z"/>
	<path fill="#636363" d="M487.6165466,240.1103058c0-0.6777344,0.5438232-1.2880859,1.2915039-1.2880859h19.4417725
		c8.157196,0,14.8190613,6.5083008,14.8190613,14.5761719c0,6.2368011-4.1466064,11.3217621-10.0606689,13.6943207
		l9.3129883,17.2202148c0.4758301,0.8813477,0,1.9658203-1.1556396,1.9658203h-7.1376953
		c-0.6118164,0-0.9516602-0.3388672-1.0876465-0.6103516l-9.0409851-17.965332h-7.5456543v17.2875977
		c0,0.6777344-0.6118164,1.2880859-1.2915039,1.2880859h-6.2540283c-0.7476807,0-1.2915039-0.6103516-1.2915039-1.2880859
		V240.1103058z M507.6020203,260.4491577c3.6027832,0,6.7297058-3.1186523,6.7297058-6.9155121
		c0-3.5927734-3.1269226-6.5756836-6.7297058-6.5756836h-11.0804443v13.4911957H507.6020203z"/>
	<path fill="#636363" d="M532.8922729,240.1103058c0-0.6777344,0.5438232-1.2880859,1.2235107-1.2880859h16.1108398
		c13.119751,0,23.8602295,10.644043,23.8602295,23.6606293c0,13.1523438-10.7404785,23.7958984-23.8602295,23.7958984h-16.1108398
		c-0.6796875,0-1.2235107-0.6103516-1.2235107-1.2880859V240.1103058z M549.4108276,278.0077515
		c8.8371582,0,15.2950439-6.644043,15.2950439-15.5249023c0-8.8134613-6.4578857-15.4575043-15.2950439-15.4575043h-7.7495117
		v30.9824066H549.4108276z"/>
	<path fill="#636363" d="M583.0631714,240.1103058c0-0.6777344,0.5438232-1.2880859,1.2915039-1.2880859h27.6669922
		c0.7478027,0,1.291626,0.6103516,1.291626,1.2880859v5.5595703c0,0.6777344-0.5438232,1.2880859-1.291626,1.2880859h-20.12146
		v11.1181488h16.7906494c0.6796875,0,1.2915039,0.6103516,1.2915039,1.2880859v5.6269531
		c0,0.7456055-0.6118164,1.2880859-1.2915039,1.2880859h-16.7906494v11.8642578h20.12146
		c0.7478027,0,1.291626,0.6098633,1.291626,1.2880859v5.559082c0,0.6777344-0.5438232,1.2880859-1.291626,1.2880859h-27.6669922
		c-0.7476807,0-1.2915039-0.6103516-1.2915039-1.2880859V240.1103058z"/>
</g>
<path fill="#94BA1D" d="M552.5560913,59.2890167c0,34.1050186-45.1161804,66.9512253-46.0062561,66.9512253
	c-0.8807678,0-46.0062561-31.0802078-46.0062561-66.9512253c0-25.3392868,20.5976868-45.8808403,46.0062561-45.8808403
	C531.958374,13.4081764,552.5560913,33.9497299,552.5560913,59.2890167z"/>
<g>
	<path fill="#636363" d="M172.6520538,392.2594604h-2.4327393v-27.125l-7.5008545,0.871582v-1.7026367l9.9335938-1.7841797
		V392.2594604z"/>
</g>
<g>
	<path fill="#636363" d="M516.1489868,392.1173706h-18.3265076v-1.8852539l9.6700439-10.9472656
		c1.7840576-2.0136719,3.0440674-3.699707,3.7808838-5.0581055c0.7364197-1.3583984,1.1048279-2.6586914,1.1048279-3.9023438
		c0-1.8378906-0.5169373-3.3110352-1.5508728-4.4194336s-2.4969482-1.6625977-4.3890381-1.6625977
		c-2.2435303,0-3.9465332,0.6220703-5.1086426,1.8652344c-1.1625977,1.2436523-1.7435303,2.9057617-1.7435303,4.9868164h-2.2502441
		l-0.0405273-0.121582c-0.067749-2.4594727,0.7298584-4.5410156,2.3922119-6.2436523
		c1.6623535-1.703125,3.9125977-2.5546875,6.7507324-2.5546875c2.5407715,0,4.574707,0.7299805,6.1020203,2.1894531
		c1.5270996,1.4599609,2.2908936,3.4194336,2.2908936,5.8793945c0,1.621582-0.510376,3.2670898-1.5306396,4.9360352
		c-1.0206299,1.6694336-2.4428406,3.53125-4.2673035,5.5854492l-8.1293945,9.1835938l0.0405273,0.1010742h15.2045593V392.1173706z"
		/>
</g>
<g>
	<path fill="#636363" d="M836.732605,376.0411987h2.8179932c2.1489258,0,3.7773438-0.5371094,4.8857422-1.6118164
		c1.1080322-1.0742188,1.6623535-2.4560547,1.6623535-4.1455078c0-1.8378906-0.5203857-3.3046875-1.5610352-4.3994141
		c-1.0408936-1.0947266-2.5882568-1.6420898-4.6424561-1.6420898c-1.892334,0-3.4431152,0.5576172-4.6525879,1.6723633
		c-1.2097168,1.1152344-1.8144531,2.5849609-1.8144531,4.409668h-2.2705078l-0.0405273-0.121582
		c-0.067749-2.2978516,0.7365723-4.2099609,2.4124756-5.7373047c1.6756592-1.5273438,3.7977295-2.2910156,6.3656006-2.2910156
		c2.635498,0,4.7336426,0.7231445,6.2946777,2.1694336s2.3415527,3.453125,2.3415527,6.0209961
		c0,1.3920898-0.4327393,2.699707-1.2974854,3.9228516c-0.8651123,1.2231445-2.0814209,2.1318359-3.6490479,2.7265625
		c1.8378906,0.5268555,3.2131348,1.4160156,4.1254883,2.6655273c0.9122314,1.2504883,1.3684082,2.7270508,1.3684082,4.4296875
		c0,2.6220703-0.8483887,4.6831055-2.5441895,6.1831055c-1.6962891,1.5004883-3.8756104,2.2504883-6.5380859,2.2504883
		c-2.581543,0-4.7978516-0.7329102-6.6494141-2.199707c-1.8518066-1.4663086-2.7436523-3.503418-2.6760254-6.1123047
		l0.0406494-0.121582h2.2705078c0,1.8725586,0.6519775,3.4023438,1.9562988,4.5874023
		c1.3040771,1.1855469,2.9902344,1.7783203,5.0579834,1.7783203c2.0947266,0,3.7302246-0.5429688,4.9060059-1.6289062
		c1.1757812-1.0864258,1.7637939-2.6411133,1.7637939-4.6655273c0-2.0644531-0.6151123-3.5922852-1.8448486-4.5839844
		c-1.2299805-0.9916992-2.9870605-1.487793-5.270874-1.487793h-2.8179932V376.0411987z"/>
</g>
<g>
	<path fill="#636363" d="M1201.8930664,382.6095581h4.6221924v2.0678711h-4.6221924v7.4399414h-2.4123535v-7.4399414h-13.8463135
		v-1.3920898l13.6029053-20.6850586h2.6557617V382.6095581z M1188.5131836,382.6095581h10.9675293v-16.8261719l-0.1217041-0.0405273
		l-1.0338135,2.2094727L1188.5131836,382.6095581z"/>
</g>
<g>
	<path fill="#636363" d="M1504.9316406,378.7575073l1.6420898-16.1572266h14.3325195v2.2504883h-12.2648926l-1.0947266,10.5214844
		c0.7431641-0.6757812,1.5610352-1.1962891,2.453125-1.5610352c0.8918457-0.3647461,2.1013184-0.5678711,3.6286621-0.6083984
		c2.513916-0.0405273,4.5410156,0.8041992,6.0817871,2.5341797s2.3112793,4.0546875,2.3112793,6.9736328
		c0,2.9873047-0.7470703,5.3725586-2.2402344,7.15625c-1.4936523,1.7841797-3.7402344,2.6762695-6.7407227,2.6762695
		c-2.4326172,0-4.4599609-0.6791992-6.0817871-2.0375977c-1.6218262-1.3579102-2.3991699-3.3681641-2.3312988-6.0307617
		l0.0405273-0.1220703h2.1691895c0,1.9804688,0.564209,3.4960938,1.692627,4.546875
		c1.128418,1.050293,2.6320801,1.5756836,4.5107422,1.5756836c2.1894531,0,3.828125-0.6611328,4.9162598-1.9838867
		c1.0876465-1.3227539,1.6318359-3.2392578,1.6318359-5.75c0-2.199707-0.5441895-3.9643555-1.6318359-5.2939453
		c-1.0881348-1.3291016-2.6120605-1.9941406-4.5715332-1.9941406c-1.892334,0-3.3349609,0.3007812-4.328125,0.9018555
		c-0.9934082,0.6015625-1.7131348,1.5107422-2.1591797,2.7270508L1504.9316406,378.7575073z"/>
</g>
</svg>
