<?xml version="1.0" encoding="utf-8"?>
<!-- Generator: Adobe Illustrator 22.1.0, SVG Export Plug-In . SVG Version: 6.00 Build 0)  -->
<svg version="1.1" id="Layer_1" xmlns="http://www.w3.org/2000/svg" xmlns:xlink="http://www.w3.org/1999/xlink" x="0px" y="0px"
	 width="1683.0166016px" height="423.1224976px" viewBox="0 0 1683.0166016 423.1224976"
	 enable-background="new 0 0 1683.0166016 423.1224976" xml:space="preserve">
<rect x="10.3730221" y="328.1263733" fill="#007CA3" width="320.0777893" height="18.3999996"/>
<rect x="346.5109253" y="328.1263733" fill="#94BA1D" width="320.0777893" height="18.3999996"/>
<rect x="680.0286865" y="328.1263733" fill="#F7DC00" width="320.0777893" height="18.3999996"/>
<rect x="1016.166626" y="328.1263733" fill="#FF8000" width="320.0777893" height="18.3999996"/>
<rect x="1352.5657959" y="328.1263733" fill="#BA2B31" width="320.0777893" height="18.3999996"/>
<g>
	<path fill="#636363" d="M1184.2590332,210.7959595l20.6652832-45.6259766
		c0.2039795-0.4067383,0.5438232-0.7456055,1.1556396-0.7456055h0.6798096c0.6118164,0,0.9516602,0.3388672,1.1556396,0.7456055
		l20.5292969,45.6259766c0.4078369,0.8813477-0.1359863,1.7626953-1.1556396,1.7626953h-2.7191162
		c-0.6118164,0-1.0196533-0.4067383-1.1556396-0.7456055l-5.0303955-11.1860352h-24.1320801l-4.9624023,11.1860352
		c-0.1359863,0.3388672-0.5438232,0.7456055-1.1556396,0.7456055h-2.7191162
		C1184.3950195,212.5586548,1183.8511963,211.6773071,1184.2590332,210.7959595z M1216.548584,196.4234009
		c-3.3309326-7.3896484-6.5938721-14.847168-9.9248047-22.2368164h-0.5438232l-9.9248047,22.2368164H1216.548584z"/>
	<path fill="#636363" d="M1247.8896484,205.4400024c0.3398438-0.4067383,0.6796875-0.8813477,1.0195312-1.2880859
		c0.6796875-0.8813477,1.4274902-1.4233398,2.3793945-0.6098633c0.4755859,0.4067383,5.4379883,5.1523438,11.4882812,5.1523438
		c5.5058594,0,9.1088867-3.4575195,9.1088867-7.4575195c0-4.6777344-4.0786133-7.4575195-11.8959961-10.7114258
		c-7.4777832-3.2543945-11.9643555-6.3051758-11.9643555-14.0336914c0-4.6098633,3.6708984-12.0673828,14.4794922-12.0673828
		c6.6616211,0,11.6240234,3.4575195,11.6240234,3.4575195c0.407959,0.203125,1.2236328,1.0170898,0.407959,2.3051758
		c-0.2719727,0.4067383-0.5437012,0.8813477-0.8156738,1.2880859c-0.6118164,0.9487305-1.2915039,1.2202148-2.3793945,0.6098633
		c-0.4755859-0.2709961-4.7583008-3.1186523-8.9050293-3.1186523c-7.2058105,0-9.3811035,4.6103516-9.3811035,7.4575195
		c0,4.5424805,3.467041,7.1865234,9.1772461,9.559082c9.177002,3.7290039,15.0910645,7.1865234,15.0910645,15.0507812
		c0,7.050293-6.7297363,12.2026367-14.6833496,12.2026367c-8.0214844,0-13.4594727-4.6777344-14.3432617-5.4912109
		C1247.753418,207.2705688,1247.0737305,206.7280884,1247.8896484,205.4400024z"/>
	<path fill="#636363" d="M1286.5710449,166.3901978c0-0.6777344,0.6118164-1.2880859,1.291748-1.2880859h2.5830078
		c0.7478027,0,1.2915039,0.6103516,1.2915039,1.2880859v28.2705078c0,7.7285156,4.8266602,13.7626953,12.7797852,13.7626953
		c8.0214844,0,12.9160156-5.8984375,12.9160156-13.6269531v-28.40625c0-0.6777344,0.5439453-1.2880859,1.2915039-1.2880859
		h2.5830078c0.6799316,0,1.291748,0.6103516,1.291748,1.2880859v28.6772461
		c0,10.3051758-7.3415527,18.1689453-18.0822754,18.1689453c-10.6723633,0-17.9460449-7.8637695-17.9460449-18.1689453V166.3901978z
		"/>
	<path fill="#636363" d="M1328.8569336,210.7959595l20.6652832-45.6259766
		c0.2038574-0.4067383,0.5437012-0.7456055,1.1555176-0.7456055h0.6799316c0.6118164,0,0.9516602,0.3388672,1.1555176,0.7456055
		l20.5292969,45.6259766c0.407959,0.8813477-0.1357422,1.7626953-1.1555176,1.7626953h-2.7189941
		c-0.6118164,0-1.0197754-0.4067383-1.1557617-0.7456055l-5.0302734-11.1860352h-24.1323242l-4.9624023,11.1860352
		c-0.1357422,0.3388672-0.5437012,0.7456055-1.1555176,0.7456055h-2.7189941
		C1328.9929199,212.5586548,1328.4492188,211.6773071,1328.8569336,210.7959595z M1361.1464844,196.4234009
		c-3.3310547-7.3896484-6.59375-14.847168-9.9248047-22.2368164h-0.5439453l-9.9248047,22.2368164H1361.1464844z"/>
	<path fill="#636363" d="M1395.5463867,166.3901978c0-0.6777344,0.5439453-1.2880859,1.291748-1.2880859h14.8869629
		c8.293457,0,13.9355469,5.355957,13.9355469,12.4746094c0,5.2202148-3.4667969,9.0166016-6.6616211,10.847168
		c3.6025391,1.4912109,8.1572266,4.8134766,8.1572266,11.050293c0,7.5932617-6.0500488,13.0844727-14.8193359,13.0844727
		h-15.4987793c-0.7478027,0-1.291748-0.6103516-1.291748-1.2880859V166.3901978z M1412.8808594,208.0161743
		c4.9624023,0,8.5654297-3.7285156,8.5654297-8.6098633c0-4.8134766-4.4187012-8.3383789-9.7211914-8.3383789h-11.2163086
		v16.9482422H1412.8808594z M1411.7250977,186.3897095c5.234375,0,8.1577148-3.7285156,8.1577148-8.4741211
		c0-4.8813477-2.9233398-8.1352539-8.1577148-8.1352539h-11.0800781v16.609375H1411.7250977z"/>
	<path fill="#636363" d="M1438.0358887,166.3901978c0-0.6777344,0.6118164-1.2880859,1.291748-1.2880859h2.7189941
		c0.6799316,0,1.291748,0.6103516,1.291748,1.2880859v44.8803711c0,0.6777344-0.6118164,1.2880859-1.291748,1.2880859h-2.7189941
		c-0.6799316,0-1.291748-0.6103516-1.291748-1.2880859V166.3901978z"/>
	<path fill="#636363" d="M1478.1442871,164.4243774c13.595459,0,24.4719238,10.9150391,24.4719238,24.4741211
		c0,13.5585938-10.8764648,24.3378906-24.4719238,24.3378906s-24.4040527-10.7792969-24.4040527-24.3378906
		C1453.7402344,175.3394165,1464.5488281,164.4243774,1478.1442871,164.4243774z M1478.1442871,208.4907837
		c10.8083496,0,19.713623-8.8129883,19.713623-19.5922852c0-10.7797852-8.9052734-19.7285156-19.713623-19.7285156
		s-19.645752,8.9487305-19.645752,19.7285156C1458.4985352,199.6777954,1467.3359375,208.4907837,1478.1442871,208.4907837z"/>
	<path fill="#636363" d="M1528.1123047,166.3901978c0-0.6777344,0.5439453-1.2880859,1.2915039-1.2880859h26.7834473
		c0.7478027,0,1.2915039,0.6103516,1.2915039,1.2880859v1.9663086c0,0.6777344-0.5437012,1.2880859-1.2915039,1.2880859h-22.8405762
		v16.5419922h19.5097656c0.6796875,0,1.2915039,0.6098633,1.2915039,1.2880859v1.9658203
		c0,0.7460938-0.6118164,1.2880859-1.2915039,1.2880859h-19.5097656v17.2875977h22.8405762
		c0.7478027,0,1.2915039,0.6103516,1.2915039,1.2885742v1.9658203c0,0.6777344-0.5437012,1.2880859-1.2915039,1.2880859h-26.7834473
		c-0.7475586,0-1.2915039-0.6103516-1.2915039-1.2880859V166.3901978z"/>
	<path fill="#636363" d="M1565.2988281,205.4400024c0.3398438-0.4067383,0.6799316-0.8813477,1.0197754-1.2880859
		c0.6799316-0.8813477,1.4274902-1.4233398,2.3791504-0.6098633c0.4760742,0.4067383,5.4384766,5.1523438,11.4882812,5.1523438
		c5.5063477,0,9.1091309-3.4575195,9.1091309-7.4575195c0-4.6777344-4.0788574-7.4575195-11.8962402-10.7114258
		c-7.4775391-3.2543945-11.9638672-6.3051758-11.9638672-14.0336914c0-4.6098633,3.6706543-12.0673828,14.4790039-12.0673828
		c6.6621094,0,11.6245117,3.4575195,11.6245117,3.4575195c0.4077148,0.203125,1.2233887,1.0170898,0.4077148,2.3051758
		c-0.2719727,0.4067383-0.5439453,0.8813477-0.815918,1.2880859c-0.6118164,0.9487305-1.2915039,1.2202148-2.3789062,0.6098633
		c-0.4760742-0.2709961-4.7587891-3.1186523-8.9052734-3.1186523c-7.2055664,0-9.3808594,4.6103516-9.3808594,7.4575195
		c0,4.5424805,3.4667969,7.1865234,9.1767578,9.559082c9.1772461,3.7290039,15.0913086,7.1865234,15.0913086,15.0507812
		c0,7.050293-6.7299805,12.2026367-14.6831055,12.2026367c-8.0214844,0-13.4599609-4.6777344-14.3435059-5.4912109
		C1565.1630859,207.2705688,1564.4831543,206.7280884,1565.2988281,205.4400024z"/>
	<path fill="#636363" d="M1611.3222656,169.6445923h-11.828125c-0.7480469,0-1.291748-0.6103516-1.291748-1.2880859v-1.9663086
		c0-0.6777344,0.5437012-1.2880859,1.291748-1.2880859h28.8225098c0.7478027,0,1.2915039,0.6103516,1.2915039,1.2880859v1.9663086
		c0,0.6777344-0.5437012,1.2880859-1.2915039,1.2880859h-11.8283691v41.6259766
		c0,0.6777344-0.6118164,1.2880859-1.2915039,1.2880859h-2.5830078c-0.6796875,0-1.2915039-0.6103516-1.2915039-1.2880859
		V169.6445923z"/>
	<path fill="#636363" d="M1627.9790039,210.7959595l20.6652832-45.6259766
		c0.2038574-0.4067383,0.5437012-0.7456055,1.1555176-0.7456055h0.6799316c0.6118164,0,0.9516602,0.3388672,1.1555176,0.7456055
		l20.5292969,45.6259766c0.407959,0.8813477-0.1357422,1.7626953-1.1555176,1.7626953h-2.7189941
		c-0.6118164,0-1.0197754-0.4067383-1.1557617-0.7456055l-5.0302734-11.1860352h-24.1323242l-4.9624023,11.1860352
		c-0.1357422,0.3388672-0.5437012,0.7456055-1.1555176,0.7456055h-2.7189941
		C1628.1149902,212.5586548,1627.5712891,211.6773071,1627.9790039,210.7959595z M1660.2685547,196.4234009
		c-3.3310547-7.3896484-6.59375-14.847168-9.9248047-22.2368164h-0.5439453L1639.875,196.4234009H1660.2685547z
		 M1643.2739258,157.9839478c-0.2717285-0.5424805,0-1.0849609,0.407959-1.2880859l10.1967773-5.6948242
		c0.407959-0.2714844,1.4274902-0.4067383,1.767334,0.203125l1.2236328,2.440918
		c0.2719727,0.5424805,0.1359863,1.2202148-0.4077148,1.4233398l-10.9445801,4.5424805
		c-0.9516602,0.4067383-1.291748,0.4067383-1.5634766-0.1357422L1643.2739258,157.9839478z"/>
</g>
<g>
	<path fill="#636363" d="M1311.3173828,240.585022c-0.4077148-0.8813477,0.1362305-1.7626953,1.1557617-1.7626953h6.9335938
		c0.6118164,0,1.0197754,0.4067383,1.1557617,0.7460938l13.0517578,29.1513672h0.4758301l13.0517578-29.1513672
		c0.1359863-0.3393555,0.5437012-0.7460938,1.1555176-0.7460938h6.9338379c1.0197754,0,1.5634766,0.8813477,1.1555176,1.7626953
		l-21.072998,45.6259766c-0.2038574,0.4067383-0.5437012,0.7456055-1.1555176,0.7456055h-0.6799316
		c-0.6118164,0-0.9516602-0.3388672-1.1555176-0.7456055L1311.3173828,240.585022z"/>
	<path fill="#636363" d="M1362.5759277,240.1104126c0-0.6777344,0.5437012-1.2880859,1.2915039-1.2880859h27.6669922
		c0.7478027,0,1.291748,0.6103516,1.291748,1.2880859v5.5595703c0,0.6777344-0.5439453,1.2880859-1.291748,1.2880859h-20.1213379
		v11.1181641h16.7905273c0.6796875,0,1.2915039,0.6103516,1.2915039,1.2880859v5.6269531
		c0,0.7456055-0.6118164,1.2880859-1.2915039,1.2880859h-16.7905273v11.8642578h20.1213379
		c0.7478027,0,1.291748,0.6098633,1.291748,1.2880859v5.559082c0,0.6777344-0.5439453,1.2880859-1.291748,1.2880859h-27.6669922
		c-0.7478027,0-1.2915039-0.6103516-1.2915039-1.2880859V240.1104126z"/>
	<path fill="#636363" d="M1402.5498047,240.1104126c0-0.6777344,0.5439453-1.2880859,1.2915039-1.2880859h19.4418945
		c8.1572266,0,14.8188477,6.5083008,14.8188477,14.5761719c0,6.2368164-4.1464844,11.3217773-10.0605469,13.6943359
		l9.3129883,17.2202148c0.4758301,0.8813477,0,1.9658203-1.1557617,1.9658203h-7.1376953
		c-0.6118164,0-0.9516602-0.3388672-1.0874023-0.6103516l-9.0410156-17.965332h-7.5458984v17.2875977
		c0,0.6777344-0.6118164,1.2880859-1.2915039,1.2880859h-6.2539062c-0.7475586,0-1.2915039-0.6103516-1.2915039-1.2880859
		V240.1104126z M1422.5351562,260.4492798c3.6030273,0,6.7299805-3.1186523,6.7299805-6.9155273
		c0-3.5927734-3.1269531-6.5756836-6.7299805-6.5756836h-11.0803223v13.4912109H1422.5351562z"/>
	<path fill="#636363" d="M1452.7880859,239.1616821c0.0678711-0.5424805,0.4755859-1.0170898,1.2233887-1.0170898h1.0876465
		c0.5439453,0,0.9516602,0.2709961,1.1557617,0.6777344l14.9550781,31.9995117c0.1357422,0,0.1357422,0,0.2038574,0
		l14.9553223-31.9995117c0.2036133-0.4067383,0.5437012-0.6777344,1.1555176-0.6777344h1.0876465
		c0.7475586,0,1.1557617,0.4746094,1.2236328,1.0170898l8.0214844,45.5581055
		c0.2036133,0.9487305-0.3400879,1.559082-1.2236328,1.559082h-6.1860352c-0.6118164,0-1.1557617-0.5424805-1.2915039-1.0170898
		l-4.0107422-25.6938477c-0.0681152,0-0.2041016,0-0.2041016,0l-11.8959961,26.6430664
		c-0.1362305,0.4067383-0.5439453,0.7456055-1.1557617,0.7456055h-1.2236328c-0.6118164,0-0.9516602-0.3388672-1.1555176-0.7456055
		l-12.0319824-26.6430664c0,0-0.1362305,0-0.2041016,0l-3.9428711,25.6938477
		c-0.0678711,0.4746094-0.6115723,1.0170898-1.2233887,1.0170898h-6.1179199c-0.8837891,0-1.4277344-0.6103516-1.291748-1.559082
		L1452.7880859,239.1616821z"/>
	<path fill="#636363" d="M1507.1738281,240.1104126c0-0.6777344,0.5439453-1.2880859,1.2915039-1.2880859h27.6669922
		c0.7478027,0,1.2915039,0.6103516,1.2915039,1.2880859v5.5595703c0,0.6777344-0.5437012,1.2880859-1.2915039,1.2880859h-20.121582
		v11.1181641h16.7905273c0.6799316,0,1.291748,0.6103516,1.291748,1.2880859v5.6269531
		c0,0.7456055-0.6118164,1.2880859-1.291748,1.2880859h-16.7905273v11.8642578h20.121582
		c0.7478027,0,1.2915039,0.6098633,1.2915039,1.2880859v5.559082c0,0.6777344-0.5437012,1.2880859-1.2915039,1.2880859h-27.6669922
		c-0.7475586,0-1.2915039-0.6103516-1.2915039-1.2880859V240.1104126z"/>
	<path fill="#636363" d="M1547.1477051,240.1104126c0-0.6777344,0.5437012-1.2880859,1.2915039-1.2880859h6.2541504
		c0.6796875,0,1.2915039,0.6103516,1.2915039,1.2880859v38.0332031h17.3344727c0.7475586,0,1.2915039,0.6098633,1.2915039,1.2880859
		v5.559082c0,0.6777344-0.5439453,1.2880859-1.2915039,1.2880859h-24.880127c-0.7478027,0-1.2915039-0.6103516-1.2915039-1.2880859
		V240.1104126z"/>
	<path fill="#636363" d="M1581.4785156,240.1104126c0-0.6777344,0.6118164-1.2880859,1.2915039-1.2880859h6.3220215
		c0.7478027,0,1.2915039,0.6103516,1.2915039,1.2880859v17.9658203h22.1608887v-17.9658203
		c0-0.6777344,0.5439453-1.2880859,1.2915039-1.2880859h6.2539062c0.6796875,0,1.2915039,0.6103516,1.2915039,1.2880859v44.8803711
		c0,0.6777344-0.6118164,1.2880859-1.2915039,1.2880859h-6.2539062c-0.7475586,0-1.2915039-0.6103516-1.2915039-1.2880859
		v-18.7114258h-22.1608887v18.7114258c0,0.6777344-0.5437012,1.2880859-1.2915039,1.2880859h-6.3220215
		c-0.6796875,0-1.2915039-0.6103516-1.2915039-1.2880859V240.1104126z"/>
	<path fill="#636363" d="M1627.5712891,284.5161743l21.1411133-45.6259766
		c0.2041016-0.4067383,0.5439453-0.7456055,1.1557617-0.7456055h0.6796875c0.6796875,0,0.9516602,0.3388672,1.1557617,0.7456055
		l20.9370117,45.6259766c0.4077148,0.8813477-0.1359863,1.7626953-1.1557617,1.7626953h-5.9140625
		c-1.0195312,0-1.4953613-0.4067383-1.9711914-1.355957l-3.3310547-7.3217773h-20.3251953l-3.3310547,7.3217773
		c-0.2719727,0.6782227-0.8837891,1.355957-1.9711914,1.355957h-5.9140625
		C1627.7072754,286.2788696,1627.1635742,285.397522,1627.5712891,284.5161743z M1656.9377441,270.0757446l-6.7976074-14.9145508
		h-0.2041016l-6.6618652,14.9145508H1656.9377441z"/>
</g>
<path fill="#BA2B31" d="M1672.6435547,59.2890167c0,34.1050186-45.1160889,66.9512253-46.0062256,66.9512253
	c-0.8807373,0-46.0062256-31.0802078-46.0062256-66.9512253c0-25.3392868,20.5976562-45.8808403,46.0062256-45.8808403
	S1672.6435547,33.9497299,1672.6435547,59.2890167z"/>
<g>
	<path fill="#636363" d="M172.6520538,392.2594604h-2.4327393v-27.125l-7.5008545,0.871582v-1.7026367l9.9335938-1.7841797
		V392.2594604z"/>
</g>
<g>
	<path fill="#636363" d="M516.1489868,392.1173706h-18.3265076v-1.8852539l9.6700439-10.9472656
		c1.7840576-2.0136719,3.0440674-3.699707,3.7808838-5.0581055c0.7364197-1.3583984,1.1048279-2.6586914,1.1048279-3.9023438
		c0-1.8378906-0.5169373-3.3110352-1.5508728-4.4194336s-2.4969482-1.6625977-4.3890381-1.6625977
		c-2.2435303,0-3.9465332,0.6220703-5.1086426,1.8652344c-1.1625977,1.2436523-1.7435303,2.9057617-1.7435303,4.9868164h-2.2502441
		l-0.0405273-0.121582c-0.067749-2.4594727,0.7298584-4.5410156,2.3922119-6.2436523
		c1.6623535-1.703125,3.9125977-2.5546875,6.7507324-2.5546875c2.5407715,0,4.574707,0.7299805,6.1020203,2.1894531
		c1.5270996,1.4599609,2.2908936,3.4194336,2.2908936,5.8793945c0,1.621582-0.510376,3.2670898-1.5306396,4.9360352
		c-1.0206299,1.6694336-2.4428406,3.53125-4.2673035,5.5854492l-8.1293945,9.1835938l0.0405273,0.1010742h15.2045593V392.1173706z"
		/>
</g>
<g>
	<path fill="#636363" d="M836.732605,376.0411987h2.8179932c2.1489258,0,3.7773438-0.5371094,4.8857422-1.6118164
		c1.1080322-1.0742188,1.6623535-2.4560547,1.6623535-4.1455078c0-1.8378906-0.5203857-3.3046875-1.5610352-4.3994141
		c-1.0408936-1.0947266-2.5882568-1.6420898-4.6424561-1.6420898c-1.892334,0-3.4431152,0.5576172-4.6525879,1.6723633
		c-1.2097168,1.1152344-1.8144531,2.5849609-1.8144531,4.409668h-2.2705078l-0.0405273-0.121582
		c-0.067749-2.2978516,0.7365723-4.2099609,2.4124756-5.7373047c1.6756592-1.5273438,3.7977295-2.2910156,6.3656006-2.2910156
		c2.635498,0,4.7336426,0.7231445,6.2946777,2.1694336s2.3415527,3.453125,2.3415527,6.0209961
		c0,1.3920898-0.4327393,2.699707-1.2974854,3.9228516c-0.8651123,1.2231445-2.0814209,2.1318359-3.6490479,2.7265625
		c1.8378906,0.5268555,3.2131348,1.4160156,4.1254883,2.6655273c0.9122314,1.2504883,1.3684082,2.7270508,1.3684082,4.4296875
		c0,2.6220703-0.8483887,4.6831055-2.5441895,6.1831055c-1.6962891,1.5004883-3.8756104,2.2504883-6.5380859,2.2504883
		c-2.581543,0-4.7978516-0.7329102-6.6494141-2.199707c-1.8518066-1.4663086-2.7436523-3.503418-2.6760254-6.1123047
		l0.0406494-0.121582h2.2705078c0,1.8725586,0.6519775,3.4023438,1.9562988,4.5874023
		c1.3040771,1.1855469,2.9902344,1.7783203,5.0579834,1.7783203c2.0947266,0,3.7302246-0.5429688,4.9060059-1.6289062
		c1.1757812-1.0864258,1.7637939-2.6411133,1.7637939-4.6655273c0-2.0644531-0.6151123-3.5922852-1.8448486-4.5839844
		c-1.2299805-0.9916992-2.9870605-1.487793-5.270874-1.487793h-2.8179932V376.0411987z"/>
</g>
<g>
	<path fill="#636363" d="M1201.8930664,382.6095581h4.6221924v2.0678711h-4.6221924v7.4399414h-2.4123535v-7.4399414h-13.8463135
		v-1.3920898l13.6029053-20.6850586h2.6557617V382.6095581z M1188.5131836,382.6095581h10.9675293v-16.8261719l-0.1217041-0.0405273
		l-1.0338135,2.2094727L1188.5131836,382.6095581z"/>
</g>
<g>
	<path fill="#636363" d="M1504.9316406,378.7575073l1.6420898-16.1572266h14.3325195v2.2504883h-12.2648926l-1.0947266,10.5214844
		c0.7431641-0.6757812,1.5610352-1.1962891,2.453125-1.5610352c0.8918457-0.3647461,2.1013184-0.5678711,3.6286621-0.6083984
		c2.513916-0.0405273,4.5410156,0.8041992,6.0817871,2.5341797s2.3112793,4.0546875,2.3112793,6.9736328
		c0,2.9873047-0.7470703,5.3725586-2.2402344,7.15625c-1.4936523,1.7841797-3.7402344,2.6762695-6.7407227,2.6762695
		c-2.4326172,0-4.4599609-0.6791992-6.0817871-2.0375977c-1.6218262-1.3579102-2.3991699-3.3681641-2.3312988-6.0307617
		l0.0405273-0.1220703h2.1691895c0,1.9804688,0.564209,3.4960938,1.692627,4.546875
		c1.128418,1.050293,2.6320801,1.5756836,4.5107422,1.5756836c2.1894531,0,3.828125-0.6611328,4.9162598-1.9838867
		c1.0876465-1.3227539,1.6318359-3.2392578,1.6318359-5.75c0-2.199707-0.5441895-3.9643555-1.6318359-5.2939453
		c-1.0881348-1.3291016-2.6120605-1.9941406-4.5715332-1.9941406c-1.892334,0-3.3349609,0.3007812-4.328125,0.9018555
		c-0.9934082,0.6015625-1.7131348,1.5107422-2.1591797,2.7270508L1504.9316406,378.7575073z"/>
</g>
</svg>
