<svg xmlns="http://www.w3.org/2000/svg" viewBox="0 0 304 304">
    <defs>
        <style>
            .cls-1 {
            clip-path: url(#clip-Artboard_1);
            }

            .cls-2 {
            fill: none;
            stroke: #000;
            stroke-miterlimit: 10;
            stroke-width: 0.25px;
            }

            .cls-3, .cls-4 {
            fill: #fff;
            }

            .cls-4 {
            opacity: 0.8;
            }
        </style>
        <clipPath id="clip-Artboard_1">
            <rect width="304" height="304"/>
        </clipPath>
    </defs>
    <g id="Artboard_1" data-name="Artboard – 1" class="cls-1">
        <rect class="cls-3" width="304" height="304"/>
        <g id="Group_4868" data-name="Group 4868" transform="translate(0.079 -0.156)">
            <path id="Path_747" data-name="Path 747" class="cls-2" d="M170.9,136.6"
                  transform="translate(40.599 32.398)"/>
            <path id="Path_748" data-name="Path 748" class="cls-2" d="M203.2,91.3"
                  transform="translate(48.268 21.642)"/>
            <g id="Background_2_" transform="translate(-0.079 0.156)">
                <g id="_x33__2_" transform="translate(64.693 64.65)">
                    <path id="Path_749" data-name="Path 749" class="cls-3"
                          d="M73.4,129.837l6.93-1.237s.124.495.247,1.361c.124.495.247.99.371,1.609.124.371.124.619.248,1.114.124.371.247.742.371,1.237.247.866.495,1.732.866,2.722.124.5.371.99.495,1.485a8.6,8.6,0,0,0,.619,1.609,56.254,56.254,0,0,0,3.589,7.3,60.443,60.443,0,0,0,5.445,7.92,55.735,55.735,0,0,0,7.548,7.8,64.411,64.411,0,0,0,9.4,6.682,57.658,57.658,0,0,0,10.89,4.95,65.936,65.936,0,0,0,11.632,2.722,61.9,61.9,0,0,0,11.632.495,59.772,59.772,0,0,0,20.047-4.455c.124-.124.371-.124.495-.247s.371-.124.495-.247a3.7,3.7,0,0,0,.99-.495c.619-.247,1.361-.619,1.856-.866.619-.247,1.237-.619,1.856-.866s1.114-.619,1.609-.866a44.347,44.347,0,0,0,5.321-3.465,6.857,6.857,0,0,0,.99-.742c.371-.248.619-.495.866-.619a13.155,13.155,0,0,0,1.361-1.114c.742-.619,1.114-.99,1.114-.99l4.7,5.2a10.8,10.8,0,0,1-1.237.99c-.371.371-.866.742-1.485,1.237a6.862,6.862,0,0,1-.99.742,6.791,6.791,0,0,0-1.114.866c-1.609,1.114-3.589,2.475-5.94,3.836a13.529,13.529,0,0,1-1.856.99c-.619.371-1.361.619-1.98.99s-1.361.619-2.1.99c-.371.124-.742.371-1.114.495-.247.124-.371.124-.619.247s-.371.124-.619.248a72.878,72.878,0,0,1-22.4,4.95,70.912,70.912,0,0,1-25.986-3.712,67.516,67.516,0,0,1-12.127-5.568A72.72,72.72,0,0,1,95.3,167.7a69.052,69.052,0,0,1-8.415-8.662,63.138,63.138,0,0,1-6.064-8.91,69.468,69.468,0,0,1-3.96-8.167l-.742-1.856c-.247-.619-.371-1.114-.619-1.732-.371-1.114-.619-2.1-.99-3.094-.124-.495-.248-.866-.371-1.361a4.593,4.593,0,0,1-.247-1.114,19.13,19.13,0,0,0-.5-1.856C73.4,130.332,73.4,129.837,73.4,129.837Z"
                          transform="translate(-47.166 -34.307)"/>
                    <path id="Path_750" data-name="Path 750" class="cls-3"
                          d="M52.2,138.8l8.538-2.1v.247a4.377,4.377,0,0,1,.124.743,23.353,23.353,0,0,0,.742,2.6,73.97,73.97,0,0,0,3.341,9.157,83.476,83.476,0,0,0,6.435,12.127,82.5,82.5,0,0,0,9.776,12.374,85.157,85.157,0,0,0,11.879,10.518,93.044,93.044,0,0,0,11.756,7.3c.866.495,1.732.866,2.6,1.361.866.371,1.609.742,2.351,1.114a29.629,29.629,0,0,0,3.96,1.609c.495.247.99.371,1.485.619a5.758,5.758,0,0,1,1.114.371,2.974,2.974,0,0,0,.99.248l-2.846,8.167s-.371-.124-.99-.371c-.371-.124-.742-.247-1.238-.371a13.891,13.891,0,0,1-1.609-.619c-1.237-.495-2.722-.99-4.331-1.732a24.756,24.756,0,0,1-2.6-1.237c-.866-.5-1.856-.99-2.846-1.485A98.2,98.2,0,0,1,87.838,191.4a94.1,94.1,0,0,1-12.993-11.508A96.784,96.784,0,0,1,64.2,166.275a111.235,111.235,0,0,1-7.177-13.364,101.363,101.363,0,0,1-3.712-10.023c-.371-1.237-.619-2.227-.866-2.846-.124-.371-.124-.619-.247-.742Z"
                          transform="translate(-52.2 -32.383)"/>
                    <path id="Path_751" data-name="Path 751" class="cls-3"
                          d="M205.651,132.081h-1.732v-3.217c0-.371-.124-.866-.124-1.361s-.124-.99-.124-1.609a10.978,10.978,0,0,0-.248-1.856c0-.371-.124-.619-.124-.99a.744.744,0,0,0-.124-.495c0-.124-.124-.371-.124-.495l-.371-2.227c-.124-.742-.371-1.485-.495-2.351-.124-.371-.124-.866-.248-1.237s-.247-.866-.371-1.237a65.18,65.18,0,0,0-4.455-11.137l-.742-1.485c-.248-.495-.619-.99-.866-1.485a2.589,2.589,0,0,0-.5-.742l-.247-.371-.247-.371c-.371-.495-.619-.99-.99-1.485-.124-.247-.371-.495-.495-.742s-.371-.495-.495-.742l-1.114-1.485-1.114-1.485a13.11,13.11,0,0,0-1.237-1.485,66.648,66.648,0,0,0-11.88-10.766,63.917,63.917,0,0,0-15.344-7.8c-.743-.247-1.361-.495-2.1-.742l-.495-.124c-.124,0-.371-.124-.495-.124l-1.114-.247a44.27,44.27,0,0,0-4.331-1.114l-2.227-.371-1.114-.247-1.114-.124-2.227-.247-2.227-.124c-.371,0-.742-.124-1.114-.124h-3.341a26.9,26.9,0,0,0-4.455.247l-1.114.124h-.619l-.495.124c-.742.124-1.485.124-2.227.247-.371,0-.742.124-1.114.124l-1.114.247-2.227.371c-.742.124-1.485.371-2.1.495a13.521,13.521,0,0,0-2.1.619l-1.114.247-.99.371c-.742.247-1.361.495-2.1.742a37.8,37.8,0,0,0-3.96,1.609c-.371.124-.619.247-.99.371a3.7,3.7,0,0,0-.99.495c-.619.371-1.237.619-1.856.99a13.519,13.519,0,0,0-1.856.99c-.248.124-.619.371-.866.495l-.495.248-.5.247c-.619.371-1.114.742-1.732,1.114l-.371.247-.371.247a91262.964,91262.964,0,0,0-1.732,1.237l-.371.247-.371.247a18.2,18.2,0,0,1-1.609,1.237c-.495.371-.99.866-1.485,1.237s-.99.866-1.485,1.237A63.3,63.3,0,0,0,87.6,97.061a57.388,57.388,0,0,0-5.94,10.518c-.124.247-.247.371-.247.619-.124.247-.124.371-.247.619a12.836,12.836,0,0,0-.495,1.237c-.124.371-.371.742-.495,1.114l-.371,1.114-.371,1.114c0,.124-.124.371-.124.495s-.124.371-.124.495c-.247.742-.371,1.361-.619,1.98,0,.124-.124.247-.124.495,0,.124-.124.248-.124.495-.124.247-.124.619-.247.866-.124.495-.247,1.114-.371,1.609-.247.99-.371,1.856-.495,2.475a10.293,10.293,0,0,0-.247,1.609.723.723,0,0,1-.124.495l-1.732-.247a1.233,1.233,0,0,1,.124-.495,13,13,0,0,1,.247-1.609c.124-.742.247-1.609.495-2.6.124-.495.248-.99.371-1.609.124-.247.124-.619.247-.866,0-.124.124-.247.124-.495,0-.124.124-.371.124-.5a12.166,12.166,0,0,1,.619-1.98c0-.124.124-.371.124-.495s.124-.371.124-.495l.371-1.114.371-1.114a8.529,8.529,0,0,1,.495-1.237c.124-.371.371-.866.495-1.237.124-.248.124-.371.248-.619s.247-.371.247-.619A64.535,64.535,0,0,1,85.99,96.319a71.831,71.831,0,0,1,9.776-11.013,13.112,13.112,0,0,1,1.485-1.237,18.189,18.189,0,0,1,1.609-1.237c.495-.371,1.114-.866,1.609-1.237l.371-.371.371-.247c.248-.247.619-.371.866-.619s.619-.371.866-.619l.371-.247.495-.247c.619-.371,1.237-.742,1.732-1.114l.495-.248.495-.247a7.352,7.352,0,0,1,.99-.495,13.528,13.528,0,0,1,1.856-.99c.619-.371,1.237-.619,1.98-.99a39892.238,39892.238,0,0,1,1.98-.99c1.361-.619,2.722-1.114,4.084-1.609.742-.247,1.361-.495,2.1-.742l1.114-.371,1.114-.248c.742-.247,1.485-.371,2.227-.619.742-.124,1.485-.371,2.227-.495a13.945,13.945,0,0,1,2.227-.371l1.114-.248a3.426,3.426,0,0,1,1.114-.124,13.635,13.635,0,0,1,2.227-.247l.619-.124h.619l1.114-.124c1.485-.124,3.094-.124,4.579-.247h3.465a3.426,3.426,0,0,1,1.114.124l2.351.124,2.351.247,1.114.124,1.114.247,2.227.371c1.485.371,2.97.619,4.455,1.114l1.114.247c.124,0,.371.124.495.124l.495.124c.743.247,1.485.495,2.1.742a67.195,67.195,0,0,1,15.716,8.043,65.81,65.81,0,0,1,12.251,11.013,13.112,13.112,0,0,1,1.237,1.485c.371.495.866.99,1.237,1.485l1.114,1.485c.124.247.371.495.495.742s.371.495.495.742c.371.495.619.99.99,1.485l.5.124.247.371a2.587,2.587,0,0,0,.495.742c.248.495.619.99.866,1.485l.742,1.485a60.018,60.018,0,0,1,4.579,11.508c.124.495.248.866.371,1.361.124.371.247.866.371,1.237a17.533,17.533,0,0,1,.5,2.475l.371,2.227c0,.124.124.371.124.495a.744.744,0,0,0,.124.495c0,.371.124.619.124.99.124.619.124,1.237.248,1.856,0,.619.124,1.114.124,1.609s.124.99.124,1.361v1.237C205.651,131.339,205.651,132.081,205.651,132.081Z"
                          transform="translate(-46.762 -48.553)"/>
                    <path id="Path_752" data-name="Path 752" class="cls-3"
                          d="M96.043,74.3l8.167,10.023a3.654,3.654,0,0,1-.495.371c-.371.247-.742.619-1.361,1.114a21.917,21.917,0,0,0-1.98,1.732,11.163,11.163,0,0,1-1.237,1.114L97.9,89.892c-.866.866-1.732,1.98-2.722,2.97-.866,1.114-1.856,2.351-2.846,3.589a63.244,63.244,0,0,0-5.074,8.415,62.084,62.084,0,0,0-5.445,17.448c-.124,1.237-.371,2.351-.371,3.341a20.094,20.094,0,0,0-.124,2.6,18.416,18.416,0,0,1-.124,2.351H68.2s0-.99.124-2.846c0-.866.124-1.98.247-3.217s.247-2.6.495-4.084c.124-.742.247-1.485.371-2.351.124-.371.124-.866.247-1.237s.124-.866.247-1.237c.248-.866.371-1.732.619-2.6.124-.495.247-.866.371-1.361s.247-.866.371-1.361a89.562,89.562,0,0,1,4.331-11.137A83.661,83.661,0,0,1,81.812,88.9c1.114-1.609,2.351-2.97,3.341-4.331q1.671-2.042,3.341-3.712A19.725,19.725,0,0,1,90.1,79.25a14.84,14.84,0,0,1,1.485-1.361,17.284,17.284,0,0,1,2.475-2.1c.742-.619,1.237-.99,1.609-1.361A1.246,1.246,0,0,0,96.043,74.3Z"
                          transform="translate(-48.401 -47.2)"/>
                    <path id="Path_753" data-name="Path 753" class="cls-3"
                          d="M189.107,76.282l-2.6,3.217a3.666,3.666,0,0,0-.495-.371c-.124-.124-.371-.247-.619-.495a5.236,5.236,0,0,0-.866-.619c-.742-.495-1.609-1.114-2.6-1.732-.495-.371-1.114-.742-1.732-1.114a6.911,6.911,0,0,0-.99-.619,4.342,4.342,0,0,1-.99-.619,75.124,75.124,0,0,0-10.395-4.95,72.285,72.285,0,0,0-14.478-3.836,76.664,76.664,0,0,0-17.819-.495A66.652,66.652,0,0,0,126,66.258c-.371.124-.866.124-1.237.247s-.743.247-1.237.371a18.093,18.093,0,0,1-2.475.619,37.665,37.665,0,0,0-4.826,1.732c-1.609.619-3.217,1.361-4.826,1.98a43.009,43.009,0,0,0-4.7,2.475l-1.114.619-1.114.742-2.227,1.485-2.227,1.485-1.114.742-1.114.866a6.8,6.8,0,0,0-1.114.866l-.99.866c-.742.619-1.361,1.114-1.98,1.732s-1.361,1.237-1.98,1.856-1.237,1.237-1.856,1.98a74.875,74.875,0,0,0-6.806,8.415A68.1,68.1,0,0,0,73.9,114.766L73.53,116l-.124.619-.124.619c-.247.866-.371,1.732-.619,2.6-.124.866-.371,1.732-.495,2.6l-.371,2.6c0,.371-.124.866-.124,1.237l-.124.619v.619c-.124.866-.124,1.732-.247,2.6a18.275,18.275,0,0,1-.124,2.6v2.475a15.777,15.777,0,0,0,.124,2.475c.124.866.124,1.609.247,2.475a16.773,16.773,0,0,0,.247,2.475c0,.371.124.866.124,1.237s.124.866.124,1.237a15.915,15.915,0,0,0,.495,2.351c0,.247.124.371.124.619l.124.619c.124.371.124.742.248,1.114.371,1.609.866,3.094,1.237,4.579a74.406,74.406,0,0,0,3.217,8.415,37.29,37.29,0,0,0,1.98,3.836,13.518,13.518,0,0,1,.99,1.856c.371.619.742,1.237.99,1.732a65.673,65.673,0,0,0,9.157,11.632l1.114,1.114,1.114,1.114c.743.742,1.485,1.361,2.227,1.98s1.485,1.237,2.1,1.732c.742.495,1.361.99,1.98,1.485.124.124.371.247.495.371s.371.247.495.371a5.237,5.237,0,0,1,.866.619,18.11,18.11,0,0,1,1.609,1.114c1.114.619,1.98,1.237,2.722,1.732a24.044,24.044,0,0,0,2.351,1.237l-2.1,3.589s-.866-.495-2.475-1.361c-.742-.5-1.732-1.114-2.846-1.732a15.014,15.014,0,0,1-1.732-1.237,4.339,4.339,0,0,0-.99-.619c-.124-.124-.371-.247-.495-.371s-.371-.248-.495-.371c-.619-.495-1.361-1.114-2.1-1.609l-2.227-1.856c-.742-.619-1.485-1.361-2.351-2.1-.371-.371-.866-.742-1.237-1.114a11.66,11.66,0,0,0-1.237-1.237,69.333,69.333,0,0,1-9.652-12.374l-1.114-1.856c-.371-.619-.742-1.237-1.114-1.98a42.233,42.233,0,0,1-2.1-4.084,69.994,69.994,0,0,1-3.465-8.91c-.495-1.609-.99-3.217-1.361-4.826a4.4,4.4,0,0,1-.247-1.237l-.124-.619c0-.247-.124-.371-.124-.619a14.6,14.6,0,0,0-.495-2.475c-.124-.371-.124-.866-.248-1.237,0-.371-.124-.866-.124-1.237a18.459,18.459,0,0,1-.247-2.6c-.124-.866-.124-1.732-.247-2.6a20.977,20.977,0,0,0-.124-2.722v-2.722a20.051,20.051,0,0,1,.124-2.722c.124-.866.124-1.856.247-2.722V126.4l.124-.742c0-.495.124-.866.124-1.361.124-.866.247-1.856.371-2.722s.371-1.856.495-2.722c.248-.866.371-1.856.619-2.722l.124-.742.247-.619.371-1.361a72.82,72.82,0,0,1,9.776-20.542,83.683,83.683,0,0,1,7.177-8.91c.619-.742,1.361-1.361,1.98-2.1.742-.619,1.361-1.361,2.1-1.98s1.485-1.237,2.1-1.856l1.114-.866c.371-.247.742-.619,1.114-.866l1.114-.866c.371-.247.742-.619,1.114-.866.742-.495,1.609-1.114,2.351-1.609s1.609-.99,2.351-1.485a10.884,10.884,0,0,1,1.237-.742c.371-.247.866-.495,1.237-.742,1.609-.99,3.341-1.732,4.95-2.6,1.732-.742,3.341-1.485,5.074-2.1a49.326,49.326,0,0,1,5.074-1.732l2.6-.742c.371-.124.866-.247,1.237-.371a4.4,4.4,0,0,1,1.237-.247,75.009,75.009,0,0,1,10.147-1.609,76.772,76.772,0,0,1,34.154,4.455,61.6,61.6,0,0,1,11.013,5.2c.371.247.742.371,1.114.619s.619.371.99.619l1.856,1.114c1.114.742,1.98,1.361,2.722,1.856a6.866,6.866,0,0,1,.99.742,2.589,2.589,0,0,0,.743.495A11.633,11.633,0,0,0,189.107,76.282Z"
                          transform="translate(-48.781 -50.543)"/>
                    <path id="Path_754" data-name="Path 754" class="cls-3"
                          d="M109.168,52.4l3.712,8.662a.383.383,0,0,0-.248.124.938.938,0,0,0-.495.247c-.495.247-1.237.495-2.1.866-.495.247-.99.371-1.485.619s-1.114.495-1.732.866c-.619.248-1.237.619-1.98.99-.619.371-1.361.742-2.1,1.237-.371.247-.742.371-1.114.619l-1.114.742c-.742.495-1.609.99-2.351,1.485-1.609,1.114-3.217,2.227-4.826,3.465a71.21,71.21,0,0,0-9.652,8.786,77.218,77.218,0,0,0-8.167,10.147c-.619.866-1.114,1.732-1.732,2.6-.495.866-.99,1.732-1.485,2.475-.247.371-.495.866-.742,1.237s-.371.866-.619,1.237c-.371.742-.866,1.609-1.237,2.351s-.619,1.485-.99,2.1c-.371.742-.619,1.361-.866,1.98-.495,1.237-.99,2.351-1.237,3.217a21.289,21.289,0,0,0-.866,2.722L56.7,108.333s.371-1.114,1.114-3.217c.371-.99.866-2.227,1.485-3.589.247-.742.619-1.361.99-2.227.371-.742.742-1.609,1.114-2.351a26.175,26.175,0,0,1,1.361-2.6c.247-.5.495-.866.742-1.361s.495-.866.742-1.361c.495-.866,1.114-1.856,1.609-2.846.619-.99,1.237-1.856,1.856-2.846a94.762,94.762,0,0,1,9.033-11.261A88.334,88.334,0,0,1,87.512,64.9c1.856-1.485,3.712-2.722,5.445-3.96a29.614,29.614,0,0,1,2.6-1.609c.371-.247.866-.495,1.237-.742s.866-.495,1.237-.742c.866-.495,1.609-.866,2.351-1.361.742-.371,1.485-.742,2.1-1.114s1.361-.619,1.856-.99c.619-.247,1.114-.495,1.609-.742a25.4,25.4,0,0,1,2.351-.99,2.091,2.091,0,0,1,.619-.247C109.168,52.524,109.168,52.4,109.168,52.4Z"
                          transform="translate(-51.131 -52.4)"/>
                    <path id="Path_755" data-name="Path 755" class="cls-3"
                          d="M105.9,184.386l3.094-8.786a8.35,8.35,0,0,1,1.485.495c.495.124,1.114.371,1.732.495a22.335,22.335,0,0,1,2.351.619,69.062,69.062,0,0,0,12.746,1.98,89.194,89.194,0,0,0,12.993-.124,19.054,19.054,0,0,1,2.351-.248c.743-.124,1.361-.124,1.856-.247.99-.124,1.609-.247,1.609-.247l1.732,9.157-1.856.371c-.619.124-1.237.124-2.1.248-.743.124-1.732.247-2.722.371a80.748,80.748,0,0,1-14.6.124,87.178,87.178,0,0,1-14.478-2.227q-1.485-.371-2.6-.742a19.291,19.291,0,0,1-1.98-.619A7.188,7.188,0,0,0,105.9,184.386Z"
                          transform="translate(-39.449 -23.147)"/>
                    <path id="Path_756" data-name="Path 756" class="cls-3"
                          d="M147.974,57.662l-1.237,5.074s-1.237-.247-3.217-.742c-.99-.124-2.1-.371-3.341-.619s-2.6-.371-3.836-.495c-1.361-.124-2.6-.247-3.836-.247s-2.351-.124-3.465-.124h-3.217l-.124-5.2h.99a17.843,17.843,0,0,1,2.6,0c1.114,0,2.351,0,3.589.124,1.361.124,2.722.247,4.207.371,1.361.124,2.846.371,4.084.495,1.361.247,2.6.495,3.589.619C146.613,57.29,147.974,57.662,147.974,57.662Z"
                          transform="translate(-34.748 -51.722)"/>
                    <path id="Path_757" data-name="Path 757" class="cls-3"
                          d="M71.686,78.3l4.331,2.97s-.247.371-.742.99a10.706,10.706,0,0,0-.866,1.237l-1.114,1.856a50.108,50.108,0,0,0-2.846,4.826c-.495.99-.99,1.98-1.609,3.094-.247.495-.495,1.114-.866,1.732a11.314,11.314,0,0,1-.866,1.732,82.757,82.757,0,0,0-5.445,17.2A80.52,80.52,0,0,0,60.3,134.48a77.6,77.6,0,0,0,3.836,20.294,85.115,85.115,0,0,0,7.425,16.458c.371.619.619,1.114.99,1.732a11.294,11.294,0,0,1,.99,1.609c.371.495.619.99.99,1.485s.619.866.99,1.361.619.866.866,1.237a8.724,8.724,0,0,0,.866,1.114c.619.742,1.114,1.361,1.609,1.98.247.247.495.619.742.866a3.279,3.279,0,0,1,.619.743,10.113,10.113,0,0,0,.99,1.114c.495.619.866.99.866.99l-3.96,3.465s-.371-.371-.866-.99A9.03,9.03,0,0,0,76.14,186.7l-.742-.742c-.248-.248-.5-.619-.743-.866-.495-.619-1.114-1.361-1.732-2.1-.371-.371-.619-.866-.99-1.237-.371-.495-.619-.866-.99-1.361a10.316,10.316,0,0,1-.99-1.485,18.314,18.314,0,0,1-.99-1.609c-.371-.495-.742-1.114-1.114-1.609-.371-.619-.742-1.114-1.114-1.732a93.288,93.288,0,0,1-7.92-17.572,87.213,87.213,0,0,1-4.084-21.655,85.545,85.545,0,0,1,1.485-21.9,83.892,83.892,0,0,1,5.816-18.314c.247-.619.619-1.237.866-1.856a7.561,7.561,0,0,1,.866-1.732c.619-1.114,1.114-2.227,1.732-3.217a54.119,54.119,0,0,1,3.094-5.074c.495-.742.866-1.361,1.237-1.856s.742-.99.99-1.361C71.438,78.671,71.686,78.3,71.686,78.3Z"
                          transform="translate(-51.639 -46.25)"/>
                    <path id="Path_758" data-name="Path 758" class="cls-3"
                          d="M206.277,95.542,201.7,98.017s-.248-.371-.619-.99a10.886,10.886,0,0,1-.742-1.237c-.248-.495-.619-.99-.99-1.609s-.866-1.237-1.361-1.98-1.114-1.485-1.609-2.351a2.174,2.174,0,0,0-.5-.619c-.124-.248-.371-.371-.495-.619a8.675,8.675,0,0,1-.99-1.237c-.742-.866-1.485-1.732-2.351-2.722a76.928,76.928,0,0,0-12.622-11.385c-1.237-.866-2.6-1.856-3.96-2.722-.742-.371-1.361-.866-2.1-1.237a11.753,11.753,0,0,1-2.1-1.237c-.371-.247-.742-.371-1.114-.619a5.015,5.015,0,0,1-1.114-.619L166.8,65.72c-.743-.371-1.485-.619-2.351-.99l-1.114-.495-1.114-.495-2.351-.866c-.742-.247-1.609-.495-2.351-.742l-1.237-.371c-.371-.124-.742-.247-1.237-.371a16.485,16.485,0,0,0-2.351-.619c-.742-.247-1.609-.371-2.351-.619-.371-.124-.742-.124-1.237-.247l-.619-.124-.619-.124c-.742-.124-1.609-.248-2.351-.371-.371-.124-.743-.124-1.237-.247-.371,0-.742-.124-1.237-.124a82.133,82.133,0,0,0-17.2-.495c-.619,0-1.237.124-1.856.124-.619.124-1.237.124-1.732.247-.619.124-1.114.124-1.609.247s-1.114.124-1.609.247c-.99.124-1.98.371-2.846.495a20.105,20.105,0,0,1-2.351.495,20.831,20.831,0,0,0-3.341.866l-1.114.371-1.485-4.95s.371-.124,1.237-.371a27.914,27.914,0,0,1,3.465-.866,24.067,24.067,0,0,0,2.475-.619c.866-.124,1.98-.371,2.97-.495a7.242,7.242,0,0,1,1.609-.247c.619-.124,1.114-.124,1.732-.247s1.237-.124,1.856-.247a10,10,0,0,1,1.98-.124,93.143,93.143,0,0,1,18.314.495c.371,0,.866.124,1.237.124a4.4,4.4,0,0,1,1.237.247,19.212,19.212,0,0,1,2.6.495l.619.124.619.124a4.4,4.4,0,0,0,1.237.247c.866.247,1.732.371,2.6.619l2.6.742c.371.124.866.247,1.237.371l1.237.371a21.334,21.334,0,0,1,2.6.866l2.475.99,1.238.495,1.237.495c.866.371,1.609.742,2.475,1.114a21.5,21.5,0,0,1,2.351,1.237,11.5,11.5,0,0,0,1.237.619c.371.247.743.371,1.114.619.742.371,1.485.866,2.227,1.237.742.495,1.485.866,2.227,1.361a50.1,50.1,0,0,1,4.207,2.846,77.471,77.471,0,0,1,13.488,12.127c.866.99,1.732,1.98,2.475,2.846a13.147,13.147,0,0,0,1.114,1.361,16464.719,16464.719,0,0,0,.99,1.237c.619.866,1.237,1.732,1.732,2.475s.99,1.485,1.361,2.1.866,1.237,1.114,1.732.619.99.742,1.361A6.71,6.71,0,0,1,206.277,95.542Z"
                          transform="translate(-38.974 -52.232)"/>
                    <path id="Path_759" data-name="Path 759" class="cls-3"
                          d="M67.5,152.911l4.826-2.1a1.354,1.354,0,0,1,.247.5,8.135,8.135,0,0,0,.742,1.485c.371.619.742,1.485,1.237,2.475s1.114,1.98,1.856,3.217a74.479,74.479,0,0,0,5.816,8.167,91.7,91.7,0,0,0,9.157,9.4,85.621,85.621,0,0,0,12.746,8.91,63.022,63.022,0,0,0,7.672,3.712c.619.247,1.361.495,2.1.742a18684.757,18684.757,0,0,0,1.98.743c.742.247,1.361.495,2.1.743l1.114.371a3.614,3.614,0,0,0,1.114.248c.742.247,1.485.371,2.227.619a14.4,14.4,0,0,0,2.227.495c.371.124.742.124,1.114.247l.619.124.619.124c.742.124,1.485.247,2.351.371.743.124,1.609.247,2.351.371a15.164,15.164,0,0,0,2.351.248c.742,0,1.609.124,2.351.124s1.609.124,2.351.124c1.609,0,3.217.124,4.826,0a17.425,17.425,0,0,0,2.475-.124c.742,0,1.609-.124,2.475-.124l1.237-.124c.371,0,.742-.124,1.237-.124l2.351-.247c.743-.124,1.609-.248,2.351-.371a15.921,15.921,0,0,0,2.351-.5,77.262,77.262,0,0,0,18.19-6.311c.742-.371,1.361-.743,2.1-1.114s1.361-.742,2.1-1.114l.99-.619c.371-.247.619-.371.99-.619.619-.371,1.361-.866,1.98-1.237a17.71,17.71,0,0,0,1.856-1.361c.619-.495,1.237-.866,1.856-1.361a17.7,17.7,0,0,1,1.856-1.361l.495-.371.495-.371c.247-.247.619-.495.866-.743a71,71,0,0,0,11.88-12.622,71.929,71.929,0,0,0,7.92-13.241,78.707,78.707,0,0,0,4.455-12.251,45.44,45.44,0,0,0,1.114-5.321c.124-.371.124-.866.247-1.237s.124-.742.247-1.114a13.629,13.629,0,0,0,.247-2.227c0-.371.124-.619.124-.99a2.726,2.726,0,0,1,.124-.99c0-.619.124-1.237.124-1.732a22.956,22.956,0,0,0,.124-2.722V119.5h5.321s0,.866-.124,2.475a28.149,28.149,0,0,1-.124,2.97c0,.619-.124,1.237-.124,1.856a2.725,2.725,0,0,1-.124.99c0,.371-.124.742-.124,1.114a13.707,13.707,0,0,0-.247,2.351,4.4,4.4,0,0,1-.247,1.237c-.124.371-.124.866-.247,1.237-.247,1.732-.742,3.589-1.237,5.692a94.834,94.834,0,0,1-4.7,13.117,87.169,87.169,0,0,1-8.415,14.231,81.966,81.966,0,0,1-48.879,31.06,19.217,19.217,0,0,1-2.6.5,18.774,18.774,0,0,1-2.6.371l-2.6.371c-.371,0-.866.124-1.237.124l-1.237.124c-.866.124-1.732.124-2.6.247a18.265,18.265,0,0,0-2.6.124c-1.732.124-3.465,0-5.2,0-.866,0-1.732-.124-2.6-.124-.866-.124-1.732-.124-2.6-.247s-1.732-.248-2.475-.371c-.866-.124-1.609-.248-2.475-.371s-1.609-.247-2.475-.371l-.619-.124-.619-.124c-.371-.124-.866-.124-1.237-.247-.742-.247-1.609-.371-2.351-.619a16.474,16.474,0,0,0-2.351-.619l-1.114-.371-1.114-.371-2.227-.742-1.114-.371-1.114-.371a16.523,16.523,0,0,1-2.227-.866,71.423,71.423,0,0,1-8.167-3.96,77.7,77.7,0,0,1-13.612-9.528,73.52,73.52,0,0,1-9.776-10.023,82.217,82.217,0,0,1-6.311-8.786c-.742-1.237-1.485-2.475-1.98-3.465s-.99-1.856-1.361-2.6a14.616,14.616,0,0,1-.742-1.609A2.136,2.136,0,0,1,67.5,152.911Z"
                          transform="translate(-48.567 -36.467)"/>
                    <path id="Path_760" data-name="Path 760" class="cls-3"
                          d="M157.343,69.518l-1.485,4.95a3.99,3.99,0,0,0-.742-.247c-.247-.124-.619-.124-.99-.248s-.866-.247-1.361-.371-.99-.247-1.609-.371c-.247-.124-.619-.124-.866-.247-.371,0-.619-.124-.99-.124l-2.227-.371a15.232,15.232,0,0,0-2.475-.248,62.567,62.567,0,0,0-11.879-.124,64.92,64.92,0,0,0-13.364,2.475,63.306,63.306,0,0,0-22.027,12,6.2,6.2,0,0,0-.99.866,2.891,2.891,0,0,0-.866.866,19.036,19.036,0,0,0-1.609,1.485L92.5,91.173l-.619.619c-.124.247-.371.371-.495.619-.619.742-1.237,1.361-1.485,1.732a2.746,2.746,0,0,0-.495.619L85.2,91.544a3.064,3.064,0,0,0,.495-.742c.371-.495.99-1.114,1.609-1.856.124-.247.371-.371.619-.619s.371-.495.619-.619l1.485-1.485a22.123,22.123,0,0,1,1.732-1.609c.371-.248.619-.619.99-.866a7.072,7.072,0,0,0,.99-.866,67.635,67.635,0,0,1,10.518-7.3,66.2,66.2,0,0,1,13.488-5.816,67.689,67.689,0,0,1,14.478-2.722,73.326,73.326,0,0,1,12.869.124c.99.124,1.856.247,2.722.371s1.609.247,2.351.371c.371.124.742.124,1.114.247s.742.124.99.247c.619.124,1.237.247,1.732.371s.99.248,1.361.371a3.825,3.825,0,0,0,.99.247A3.425,3.425,0,0,1,157.343,69.518Z"
                          transform="translate(-44.364 -48.976)"/>
                    <path id="Path_761" data-name="Path 761" class="cls-3"
                          d="M94.9,68l7.672,10.395a1.532,1.532,0,0,1-.371.247c-.247.124-.495.371-.99.619a9.022,9.022,0,0,0-1.361,1.114c-.247.248-.619.371-.866.619a6.86,6.86,0,0,1-.99.742,65.191,65.191,0,0,0-8.786,8.786c-1.485,1.732-2.722,3.589-3.96,5.321a10.7,10.7,0,0,1-.866,1.237c-.124.247-.247.371-.371.619s-.247.371-.371.619c-.5.866-.99,1.609-1.361,2.351-.742,1.485-1.485,2.722-1.856,3.589s-.619,1.361-.619,1.361l-12-5.074s.247-.619.742-1.609c.495-1.114,1.237-2.6,2.227-4.331.495-.866,1.114-1.856,1.609-2.846a2.59,2.59,0,0,1,.495-.742c.124-.247.371-.495.5-.742a18.333,18.333,0,0,0,.99-1.609,69.38,69.38,0,0,1,4.7-6.311c.247-.247.371-.5.619-.742l.619-.742c.495-.495.866-.99,1.361-1.485A14.83,14.83,0,0,1,83.021,77.9l1.361-1.361A6.485,6.485,0,0,1,85.743,75.3c.495-.371.866-.866,1.361-1.237l.619-.619c.247-.124.371-.371.619-.495a8.673,8.673,0,0,1,1.237-.99c.371-.371.742-.619,1.114-.99a6.867,6.867,0,0,0,.99-.742,11.606,11.606,0,0,1,1.732-1.237,8.4,8.4,0,0,1,1.114-.742A1.531,1.531,0,0,0,94.9,68Z"
                          transform="translate(-48.496 -48.696)"/>
                </g>
                <g id="_x32__2_" transform="translate(78.305 73.882)">
                    <path id="Path_762" data-name="Path 762" class="cls-3"
                          d="M103.528,88.9l4.579,5.2a4.9,4.9,0,0,1-.866.619,5.717,5.717,0,0,0-.866.866,2.7,2.7,0,0,1-.619.495l-.619.619-1.485,1.485c-.247.247-.495.619-.742.866s-.495.619-.866.99a42.87,42.87,0,0,0-3.341,4.95,50.033,50.033,0,0,0-3.094,6.311,60.313,60.313,0,0,0-2.227,7.548A43.471,43.471,0,0,0,93.5,135.8a44.228,44.228,0,0,0,17.077,26.358,46.544,46.544,0,0,0,9.281,5.2,13.879,13.879,0,0,0,1.609.619,12.845,12.845,0,0,1,1.237.495c.619.247.99.371.99.371l-2.227,6.558-1.114-.371a9.407,9.407,0,0,1-1.361-.495,19.259,19.259,0,0,1-1.856-.742,56.418,56.418,0,0,1-10.766-6.063,52.178,52.178,0,0,1-12-12.375,62.9,62.9,0,0,1-4.7-8.538,44.666,44.666,0,0,1-2.97-9.528,49.558,49.558,0,0,1-.124-19.552,51.3,51.3,0,0,1,6.063-16.087,45.286,45.286,0,0,1,3.96-5.692,9,9,0,0,1,.99-1.114c.371-.371.619-.742.866-.99a11.43,11.43,0,0,1,1.732-1.732l.742-.742.619-.619a8.01,8.01,0,0,1,1.114-.99A4.415,4.415,0,0,1,103.528,88.9Z"
                          transform="translate(-57.866 -52.965)"/>
                    <path id="Path_763" data-name="Path 763" class="cls-4"
                          d="M86.712,75.1,92.9,81.287l-.124.124-.371.371L90.8,83.391a64.194,64.194,0,0,0-5.074,6.063,65.068,65.068,0,0,0-5.94,9.4,70.925,70.925,0,0,0-4.826,11.756,77.519,77.519,0,0,0-2.6,12.5,56.981,56.981,0,0,0-.247,11.137c0,.866.124,1.609.124,2.351.124.743.124,1.485.247,2.1.124,1.361.371,2.475.495,3.341.124.5.124.866.247,1.237a7.889,7.889,0,0,0,.247.866,3.462,3.462,0,0,1,.124.742l-8.662,1.732a3.867,3.867,0,0,1-.248-.866,3.826,3.826,0,0,0-.247-.99c-.124-.371-.124-.866-.247-1.361-.124-1.114-.371-2.351-.495-3.836-.124-.742-.124-1.485-.247-2.351,0-.866-.124-1.732-.124-2.6a72.671,72.671,0,0,1,.371-12.5,82.5,82.5,0,0,1,2.846-13.983A74.258,74.258,0,0,1,71.986,94.9a75.437,75.437,0,0,1,6.682-10.642,63.693,63.693,0,0,1,5.816-6.806A20.645,20.645,0,0,0,86.217,75.6l.495-.495Z"
                          transform="translate(-63.2 -56.242)"/>
                    <path id="Path_764" data-name="Path 764" class="cls-3"
                          d="M156.6,170.421l-.866-1.485a11.539,11.539,0,0,0,1.361-.866,2.591,2.591,0,0,0,.742-.495c.247-.124.495-.371.866-.619s.619-.495.99-.742a6.8,6.8,0,0,0,1.114-.866,8.672,8.672,0,0,0,1.237-.99c.371-.371.866-.742,1.237-1.114.495-.371.866-.866,1.361-1.237.247-.247.495-.371.743-.619l.742-.742a42.481,42.481,0,0,0,5.569-7.053,11.386,11.386,0,0,0,.619-.99c.247-.371.371-.742.619-1.114a14.108,14.108,0,0,0,1.237-2.351c.124-.248.247-.371.247-.619.124-.247.124-.371.248-.619.247-.371.371-.866.619-1.237.124-.371.371-.866.495-1.237.124-.495.371-.866.495-1.361a43.279,43.279,0,0,0,2.475-11.508,47.386,47.386,0,0,0-.619-12.5c-.247-.99-.495-2.1-.742-3.094a29.871,29.871,0,0,0-.99-3.094,7.572,7.572,0,0,0-.619-1.485l-.248-.742-.371-.742-.619-1.485-.743-1.485-.742-1.485a9.228,9.228,0,0,0-.866-1.485c-.619-.866-1.114-1.856-1.856-2.722l-.495-.619-.248-.371-.247-.371a8.663,8.663,0,0,1-.99-1.237c-.124-.247-.371-.371-.495-.619l-.495-.619c-.371-.371-.743-.866-1.114-1.237l-1.114-1.114a11.157,11.157,0,0,0-1.237-1.114l-.619-.495-.619-.495a8.672,8.672,0,0,0-1.237-.99c-.866-.619-1.732-1.361-2.6-1.856-.495-.247-.866-.619-1.361-.866a8.323,8.323,0,0,1-1.361-.866,13.493,13.493,0,0,0-1.361-.742l-.619-.248-.743-.371a6.631,6.631,0,0,0-1.361-.619l-.371-.124-.371-.124a1.759,1.759,0,0,0-.742-.247,33.34,33.34,0,0,0-5.568-1.98,49.354,49.354,0,0,0-10.642-1.856,44.051,44.051,0,0,0-9.157.248c-.371,0-.619.124-.99.124s-.619.124-.99.124-.619.124-.866.124c-.247.124-.619.124-.866.247-1.114.248-2.227.495-3.094.742a.455.455,0,0,0-.371.124c-.124,0-.247.124-.371.124-.247.124-.371.124-.619.247l-1.114.371c-.742.247-1.361.495-1.856.619a4.853,4.853,0,0,0-1.114.495.958.958,0,0,1-.371.124l-.742-1.609a.957.957,0,0,0,.371-.124c.248-.124.619-.248,1.114-.495a9.551,9.551,0,0,0,1.856-.742c.371-.124.742-.247,1.237-.371.247-.124.495-.124.619-.247.124,0,.247-.124.371-.124a.455.455,0,0,0,.371-.124c.99-.247,2.1-.495,3.217-.742.247-.124.619-.124.866-.247a2.412,2.412,0,0,1,.99-.124c.371,0,.619-.124.99-.124s.619-.124.99-.124a46.488,46.488,0,0,1,9.4-.247A49.075,49.075,0,0,1,150.9,85.408a1.759,1.759,0,0,0,.742.247l.371.124.371.124a13.5,13.5,0,0,1,1.361.742l.743.371.742.371a13.5,13.5,0,0,1,1.361.742c.5.247.866.619,1.361.866s.866.619,1.361.866c.866.619,1.732,1.237,2.6,1.98.371.371.866.742,1.237,1.114l.619.5.619.619c.371.371.866.742,1.238,1.114a11.159,11.159,0,0,1,1.114,1.237c.371.371.743.866,1.114,1.237l.619.619a2.172,2.172,0,0,1,.495.619c.371.495.742.866,1.114,1.361l.247.371.247.371.495.742a22.507,22.507,0,0,1,1.856,2.846c.247.495.619.99.866,1.485s.619.99.866,1.485l.742,1.485.742,1.609.371.742.247.742c.247.495.371.99.619,1.609a31.959,31.959,0,0,1,.99,3.217c.371,1.114.495,2.227.743,3.217a46.187,46.187,0,0,1,.742,12.993,47.076,47.076,0,0,1-2.6,12c-.124.495-.371.866-.495,1.361s-.371.866-.5,1.361c-.247.371-.371.866-.619,1.237-.124.247-.248.371-.248.619-.124.247-.247.371-.371.619-.371.866-.866,1.609-1.237,2.351a5.015,5.015,0,0,0-.619,1.114l-.743,1.114a45.634,45.634,0,0,1-5.816,7.3l-.742.742-.742.743a12.315,12.315,0,0,1-1.361,1.237c-.495.371-.866.743-1.361,1.114-.371.371-.866.619-1.237.99-.371.247-.742.619-1.114.866a6.858,6.858,0,0,0-.99.742,5.24,5.24,0,0,0-.866.619c-.247.124-.495.371-.742.495C157.091,170.05,156.6,170.421,156.6,170.421Z"
                          transform="translate(-51.66 -54.795)"/>
                    <path id="Path_765" data-name="Path 765" class="cls-3"
                          d="M153.622,78.3l-4.579,12a.957.957,0,0,1-.371-.124,5.018,5.018,0,0,0-1.237-.371c-.495-.124-1.114-.371-1.856-.619l-1.114-.371a4.45,4.45,0,0,0-1.361-.247c-.866-.247-1.856-.371-2.97-.619l-3.341-.371a47.926,47.926,0,0,0-7.3,0A43.282,43.282,0,0,0,116.251,90.8c-.866.371-1.609.619-2.351.99-.619.371-1.237.619-1.732.866a10.637,10.637,0,0,0-1.485.866L104,82.508s.742-.371,1.98-1.114a18.612,18.612,0,0,1,2.227-1.114c.866-.495,1.856-.866,2.97-1.361a57.657,57.657,0,0,1,17.077-4.084,59.632,59.632,0,0,1,9.4,0c1.485.124,2.97.371,4.331.495,1.361.248,2.6.495,3.836.743.619.124,1.114.247,1.732.371l1.485.371c.99.247,1.732.495,2.475.742.619.247,1.237.371,1.485.495A1.477,1.477,0,0,1,153.622,78.3Z"
                          transform="translate(-53.512 -56.349)"/>
                    <path id="Path_766" data-name="Path 766" class="cls-3"
                          d="M197.581,138.719l-4.207-.619a1.951,1.951,0,0,1,.124-.495,1.345,1.345,0,0,1,.124-.619c0-.247.124-.495.124-.866a19.071,19.071,0,0,1,.247-2.351v-3.217a59.817,59.817,0,0,0-.742-8.662A61.2,61.2,0,0,0,190.157,111a60.17,60.17,0,0,0-6.682-11.756,50.122,50.122,0,0,0-4.826-5.568l-.619-.619a3.28,3.28,0,0,0-.742-.619,7.091,7.091,0,0,1-1.361-1.361,30.126,30.126,0,0,0-3.094-2.475c-.99-.866-2.1-1.485-3.217-2.351a32.25,32.25,0,0,0-3.465-2.1c-.619-.371-1.237-.619-1.856-.99-.619-.248-1.237-.619-1.856-.866a12.491,12.491,0,0,1-1.856-.866c-.619-.247-1.237-.495-1.98-.742a59.935,59.935,0,0,0-8.043-2.351c-2.722-.495-5.569-.866-8.415-1.114a57.659,57.659,0,0,0-16.706,1.609l-.99.248-.495.124-.495.124c-.619.247-1.361.371-1.98.619s-1.237.495-1.98.742l-1.856.743-.99.371-.5.247-.495.248c-.619.247-1.237.619-1.856.866a7.89,7.89,0,0,0-1.732.99l-.866.495-.866.495a12.364,12.364,0,0,1-1.732.99c-.495.371-1.114.742-1.609,1.114a18.105,18.105,0,0,1-1.609,1.114c-.248.247-.5.371-.742.619s-.495.371-.742.619c-.495.371-.99.866-1.485,1.237-.247.247-.495.371-.742.619s-.5.371-.619.619l-2.6,2.6a53.8,53.8,0,0,0-12.127,21.408,45.327,45.327,0,0,0-1.732,8.538c0,.247-.124.619-.124.866a2.106,2.106,0,0,1-.124.866c0,.495-.124.99-.124,1.485a12.767,12.767,0,0,1-.124,2.351v1.98l-4.207.124v-2.1a20.087,20.087,0,0,1,.124-2.6c0-.495.124-.99.124-1.609a2.106,2.106,0,0,1,.124-.866,3.075,3.075,0,0,1,.124-.99,55.593,55.593,0,0,1,1.856-9.281,58.263,58.263,0,0,1,4.579-11.261,55.877,55.877,0,0,1,8.415-11.756A30.217,30.217,0,0,1,98.09,89.1l.742-.742a3.282,3.282,0,0,1,.742-.619,18.506,18.506,0,0,1,1.609-1.361,3.281,3.281,0,0,1,.742-.619,5.238,5.238,0,0,1,.866-.619,20.99,20.99,0,0,1,1.732-1.237,15.017,15.017,0,0,0,1.732-1.237l1.856-1.114c.248-.247.619-.371.866-.619.371-.124.619-.371.99-.495a13.523,13.523,0,0,1,1.856-.99c.619-.371,1.361-.619,1.98-.99l.495-.247.495-.247.99-.371c.619-.247,1.361-.619,2.1-.866s1.361-.495,2.1-.742a13.523,13.523,0,0,1,2.1-.619l.495-.124.495-.124,1.114-.248a62.754,62.754,0,0,1,18.067-1.856,72.051,72.051,0,0,1,9.033,1.114,63.73,63.73,0,0,1,8.662,2.475,15.09,15.09,0,0,1,2.1.866c.742.248,1.361.619,2.1.866a14.776,14.776,0,0,1,1.98.99c.619.371,1.361.619,1.98.99,1.237.619,2.475,1.485,3.712,2.227,1.237.866,2.351,1.609,3.465,2.475s2.227,1.732,3.217,2.6a14.828,14.828,0,0,0,1.485,1.361l.742.742.742.742a48.083,48.083,0,0,1,5.2,6.063,59.544,59.544,0,0,1,7.177,12.622A55.192,55.192,0,0,1,197.21,120.9a56.311,56.311,0,0,1,.866,9.4v3.465a15.448,15.448,0,0,1-.247,2.6c0,.371-.124.619-.124.866a5.357,5.357,0,0,1-.124.619Z"
                          transform="translate(-59.235 -56.751)"/>
                    <path id="Path_767" data-name="Path 767" class="cls-3"
                          d="M176.439,74.635l-5.692,7.425-.124-.124c-.124-.124-.247-.124-.371-.248-.371-.247-.866-.619-1.485-.99l-1.114-.742a13.5,13.5,0,0,0-1.361-.742c-.5-.248-.99-.619-1.485-.866s-1.114-.619-1.732-.99c-.247-.124-.619-.371-.866-.495-.371-.124-.619-.371-.99-.495-.619-.371-1.361-.619-1.98-.99q-2.042-.928-4.455-1.856a60.756,60.756,0,0,0-10.147-2.97,76.473,76.473,0,0,0-10.518-1.361,75.567,75.567,0,0,0-9.281.124c-.619.124-1.361.124-1.98.247s-1.237.124-1.732.248c-1.114.124-1.98.371-2.846.5a23.17,23.17,0,0,1-2.475.495l-2.1-9.033s.99-.247,2.722-.619c.866-.124,1.98-.371,3.217-.495.619-.124,1.237-.124,1.98-.247s1.485-.124,2.227-.248a94.773,94.773,0,0,1,10.518-.247,105.85,105.85,0,0,1,12,1.485A84.532,84.532,0,0,1,158,64.735a48.1,48.1,0,0,1,5.074,2.1c.742.371,1.609.742,2.351,1.114.371.124.742.371,1.114.495a6.91,6.91,0,0,1,.99.619c.619.371,1.361.742,1.98,1.114a12.368,12.368,0,0,0,1.732.99,9.234,9.234,0,0,0,1.485.866,10.7,10.7,0,0,1,1.237.866c.742.5,1.361.866,1.732,1.114a1.708,1.708,0,0,1,.495.371C176.439,74.511,176.439,74.635,176.439,74.635Z"
                          transform="translate(-51.209 -59.861)"/>
                    <path id="Path_768" data-name="Path 768" class="cls-3"
                          d="M74.3,131.38l9.281-1.98s.124.495.247,1.237c.124.371.247.866.371,1.361a12.706,12.706,0,0,0,.495,1.732,56.906,56.906,0,0,0,3.712,9.157,47.135,47.135,0,0,0,5.321,8.415,11.608,11.608,0,0,1,1.114,1.485c.371.371.619.866.866,1.114a13.145,13.145,0,0,0,.866.99L89.4,160.955s-.371-.371-.99-1.114c-.371-.371-.619-.742-1.114-1.237-.371-.495-.866-1.114-1.361-1.732a67.433,67.433,0,0,1-6.063-9.776,58.376,58.376,0,0,1-4.331-10.642c-.248-.742-.371-1.485-.619-2.1a9.768,9.768,0,0,1-.371-1.609C74.424,131.875,74.3,131.38,74.3,131.38Z"
                          transform="translate(-60.564 -43.349)"/>
                    <path id="Path_769" data-name="Path 769" class="cls-3"
                          d="M180.627,108.134l-5.074,1.485a25.137,25.137,0,0,1-.742-2.475c-.247-.742-.619-1.609-.99-2.475a26.5,26.5,0,0,0-1.237-2.722c-.5-.866-.866-1.856-1.361-2.722s-.866-1.609-1.361-2.351c-.371-.619-.742-1.237-.99-1.609a6.426,6.426,0,0,1-.371-.619l4.455-2.846a6.415,6.415,0,0,0,.371.619c.247.371.619.99,1.114,1.732.371.742.866,1.609,1.361,2.475l1.485,2.97c.495.99.866,1.98,1.361,2.97.371.99.743,1.856.99,2.722C180.256,107.144,180.627,108.134,180.627,108.134Z"
                          transform="translate(-38.197 -52.277)"/>
                    <path id="Path_770" data-name="Path 770" class="cls-3"
                          d="M147.593,61.711l-.495,5.2a5.6,5.6,0,0,1-.99-.124,19.274,19.274,0,0,0-2.97-.124c-1.237-.124-2.846,0-4.579,0-.866,0-1.856.124-2.846.124-.99.124-1.98.247-3.094.371a64.224,64.224,0,0,0-14.478,3.465,72.6,72.6,0,0,0-15.221,7.548A65.64,65.64,0,0,0,90.052,89.182a68.351,68.351,0,0,0-8.662,11.879c-.247.495-.495.866-.742,1.361s-.495.866-.742,1.361a11.444,11.444,0,0,0-.619,1.237c-.247.371-.371.866-.619,1.237a17.538,17.538,0,0,0-.99,2.227c-.247.742-.495,1.361-.742,1.98-.124.247-.247.619-.371.866s-.124.495-.247.742a5.751,5.751,0,0,1-.371,1.114c-.247.619-.371.99-.371.99L70.5,112.693s.124-.371.371-.99c.124-.371.247-.742.371-1.237.124-.248.124-.495.247-.742s.247-.619.371-.866c.247-.619.495-1.361.866-2.1.248-.742.742-1.485,1.114-2.351a14.511,14.511,0,0,0,.619-1.361c.248-.495.495-.866.742-1.361l.742-1.485a9.23,9.23,0,0,1,.866-1.485,71.485,71.485,0,0,1,23.14-24.5,77.507,77.507,0,0,1,16.334-8.167,76.2,76.2,0,0,1,15.592-3.712l3.341-.371c1.114-.124,2.1-.124,3.094-.248,1.856,0,3.589-.124,4.95,0,1.361,0,2.475.124,3.217.124A7.637,7.637,0,0,1,147.593,61.711Z"
                          transform="translate(-61.467 -59.435)"/>
                    <path id="Path_771" data-name="Path 771" class="cls-3"
                          d="M178.506,162.933l-4.579-2.6s.124-.248.495-.866a11.418,11.418,0,0,1,.619-.99,13.507,13.507,0,0,0,.742-1.361,53.329,53.329,0,0,0,3.712-8.786,60.757,60.757,0,0,0,2.846-13.117c.124-1.237.248-2.475.248-3.712v-4.826l-.124-.99c0-.619-.124-1.237-.124-1.98-.124-.619-.124-1.237-.247-1.98l-.124-.99-.124-.99-.371-1.98-.371-1.856c-.247-1.237-.619-2.475-.99-3.712a10.886,10.886,0,0,0-.619-1.856,2.3,2.3,0,0,1-.247-.866c-.124-.247-.247-.619-.371-.866a15.008,15.008,0,0,1-.619-1.732c-.124-.247-.247-.619-.371-.866s-.247-.619-.371-.866a63.949,63.949,0,0,0-6.682-11.632c-.247-.371-.619-.742-.866-1.114s-.619-.742-.866-1.114a3.336,3.336,0,0,0-.866-.99,6.193,6.193,0,0,0-.866-.99c-.495-.619-.99-1.114-1.485-1.732l-1.361-1.361a12.57,12.57,0,0,0-1.98-1.856,7.572,7.572,0,0,1-.742-.619l3.589-3.836.743.742c.495.495,1.237,1.114,2.1,1.98a16.8,16.8,0,0,0,1.485,1.485c.5.495.99,1.114,1.609,1.856.248.371.619.619.866.99s.619.742.866,1.114a8.007,8.007,0,0,0,.99,1.114,7.506,7.506,0,0,1,.866,1.237,70.586,70.586,0,0,1,7.177,12.622c.124.247.247.619.371.866a8.524,8.524,0,0,1,.371.99l.742,1.856c.124.371.247.619.371.99s.247.619.371.99a12.167,12.167,0,0,1,.619,1.98c.371,1.361.742,2.722.99,4.084a12.957,12.957,0,0,0,.5,2.1l.371,2.1.124.99.124,1.114c.124.742.124,1.361.247,2.1,0,.742.124,1.361.124,2.1l.124.99v5.2c0,1.361-.124,2.722-.247,4.084a61.106,61.106,0,0,1-3.094,14.107,72.181,72.181,0,0,1-3.96,9.528,16.575,16.575,0,0,1-.743,1.485,5.019,5.019,0,0,0-.619,1.114A2.1,2.1,0,0,1,178.506,162.933Z"
                          transform="translate(-39.788 -55.103)"/>
                    <path id="Path_772" data-name="Path 772" class="cls-3"
                          d="M86.512,90.3l4.331,2.97a1.532,1.532,0,0,0-.247.371c-.124.247-.495.619-.742,1.114a12.23,12.23,0,0,0-1.114,1.856c-.495.742-.866,1.609-1.485,2.475-.99,1.98-2.227,4.331-3.341,7.177a61.253,61.253,0,0,0-2.846,9.776,53.005,53.005,0,0,0-.99,12,60.748,60.748,0,0,0,.495,6.558c.124.619.124,1.114.247,1.732s.124,1.114.248,1.732.247,1.114.371,1.732c.124.247.124.619.248.866s.124.619.248.866a9.114,9.114,0,0,0,.495,1.732c.124.619.371,1.114.495,1.732l.247.866.124.371.124.371c.247.619.371,1.114.619,1.732s.5,1.114.742,1.732c.248.495.495,1.114.742,1.609a10.226,10.226,0,0,0,.866,1.609,10.227,10.227,0,0,0,.866,1.609c.619,1.114,1.237,2.1,1.856,3.217.371.495.619,1.114.99,1.609l1.114,1.485.5.742.619.742,1.114,1.485a13.542,13.542,0,0,0,1.237,1.361,13.541,13.541,0,0,0,1.237,1.361,60.793,60.793,0,0,0,25,15.716A67.322,67.322,0,0,0,134.4,185.46a63.366,63.366,0,0,0,22.645-2.1c1.485-.495,2.846-.866,4.084-1.361l1.856-.743c.619-.247,1.114-.495,1.609-.742l.742-.371.742-.371a11.488,11.488,0,0,0,1.237-.619c.742-.371,1.361-.742,1.98-.99a11.4,11.4,0,0,1,1.609-.866l2.722,4.455s-.619.371-1.732.99a16.257,16.257,0,0,1-2.1,1.114,14.524,14.524,0,0,1-1.361.619l-.743.371a6.026,6.026,0,0,1-.866.371c-.495.248-1.114.495-1.732.742s-1.237.495-1.98.743q-2.042.742-4.455,1.485a76.87,76.87,0,0,1-11.137,2.227,68.37,68.37,0,0,1-13.364.124,58.2,58.2,0,0,1-14.6-3.094,66.343,66.343,0,0,1-27.1-17.077c-.495-.495-.866-.99-1.361-1.485a18.512,18.512,0,0,1-1.361-1.609l-1.237-1.609-.619-.742-.619-.866a14,14,0,0,0-1.237-1.609c-.371-.619-.742-1.114-1.114-1.732-.742-1.114-1.361-2.351-2.1-3.465-.371-.619-.619-1.237-.99-1.732-.247-.619-.619-1.237-.866-1.732a12.494,12.494,0,0,0-.866-1.856l-.742-1.856-.742-1.856-.124-.495-.124-.495-.247-.866c-.248-.619-.371-1.237-.619-1.856-.124-.619-.371-1.237-.495-1.856-.124-.248-.124-.619-.247-.866a7.9,7.9,0,0,0-.247-.866l-.371-1.856-.371-1.856a9.552,9.552,0,0,1-.247-1.856c-.247-2.475-.495-4.826-.495-7.177a63.213,63.213,0,0,1,1.114-13.117,57.1,57.1,0,0,1,3.094-10.642,59.024,59.024,0,0,1,3.589-7.8c.619-.99,1.114-1.98,1.609-2.722a22.824,22.824,0,0,0,1.237-1.98c.371-.495.619-.99.866-1.237Q86.512,90.3,86.512,90.3Z"
                          transform="translate(-60.402 -52.633)"/>
                    <path id="Path_773" data-name="Path 773" class="cls-4"
                          d="M175.934,117.371l-5.2,1.237a2.165,2.165,0,0,0-.124-.619c0-.247-.124-.371-.247-.742-.124-.247-.124-.619-.248-.99l-.371-1.114c-.124-.247-.124-.371-.248-.619s-.124-.495-.247-.742c-.247-.495-.371-.99-.619-1.485s-.495-1.114-.742-1.609a54.107,54.107,0,0,0-4.331-7.425,41.039,41.039,0,0,0-6.682-7.3,46.025,46.025,0,0,0-8.167-5.692,46.831,46.831,0,0,0-7.92-3.465,2.294,2.294,0,0,0-.866-.247c-.247-.124-.619-.124-.866-.247a9.767,9.767,0,0,0-1.609-.371,11.809,11.809,0,0,0-2.6-.5,14.206,14.206,0,0,0-1.732-.247,1.5,1.5,0,0,1-.619-.124L133.243,80a2.166,2.166,0,0,1,.619.124,16.237,16.237,0,0,1,1.856.371c.866.124,1.856.371,2.97.619.619.124,1.114.371,1.732.495.371.124.619.124.99.247s.619.247.99.371a48.333,48.333,0,0,1,8.91,3.836,54.073,54.073,0,0,1,9.033,6.311,50.958,50.958,0,0,1,7.425,8.167,50.366,50.366,0,0,1,4.95,8.291,12.491,12.491,0,0,0,.866,1.856,9.7,9.7,0,0,1,.619,1.732,1.759,1.759,0,0,1,.247.742c.124.248.124.495.247.742.124.495.248.866.371,1.237a3.825,3.825,0,0,1,.247.99c.124.247.124.619.247.742C175.934,117.247,175.934,117.371,175.934,117.371Z"
                          transform="translate(-46.745 -55.079)"/>
                    <path id="Path_774" data-name="Path 774" class="cls-4"
                          d="M155.006,74.282l-5.2,11.756a.383.383,0,0,1-.247-.124,6.03,6.03,0,0,0-.866-.371,8.532,8.532,0,0,1-1.237-.495,1.759,1.759,0,0,0-.742-.247,2.294,2.294,0,0,0-.866-.247,51.162,51.162,0,0,0-9.281-2.227,52.807,52.807,0,0,0-9.528-.495c-1.237.124-2.351.124-3.094.248a8.335,8.335,0,0,1-1.238.124L121.1,69.579a13.486,13.486,0,0,0,1.485-.124,31.975,31.975,0,0,1,3.96-.247,68.207,68.207,0,0,1,11.88.619,73.687,73.687,0,0,1,11.632,2.722l1.114.371c.371.124.619.247.99.371a13.876,13.876,0,0,0,1.609.619c.495.124.742.371.99.371Z"
                          transform="translate(-49.452 -57.651)"/>
                </g>
                <g id="_x31__2_">
                    <path id="Path_775" data-name="Path 775" class="cls-3"
                          d="M78.251,55.1l8.043,9.033-1.856,1.485c-.619.495-1.237,1.237-2.1,1.98-.371.371-.866.742-1.361,1.237a16.8,16.8,0,0,1-1.485,1.485,45.906,45.906,0,0,0-3.217,3.465c-.619.619-1.114,1.361-1.856,2.1l-1.856,2.227a96.364,96.364,0,0,0-7.672,11.137,81.424,81.424,0,0,0-6.93,14.354,101.6,101.6,0,0,0-4.95,17.077,94.149,94.149,0,0,0-1.732,18.809,103.491,103.491,0,0,0,1.98,19.428,96.651,96.651,0,0,0,5.94,18.685,103.077,103.077,0,0,0,9.157,16.706,100.2,100.2,0,0,0,23.511,24.254c.248.247.495.371.742.619.247.124.495.371.742.495a10.317,10.317,0,0,0,1.485.99c.99.619,1.98,1.361,2.97,1.98s1.856,1.237,2.846,1.732,1.856.99,2.722,1.485a91.307,91.307,0,0,0,9.528,4.579c1.361.619,2.6.99,3.589,1.485,1.114.371,1.98.743,2.722.99,1.485.495,2.351.743,2.351.743l-3.836,11.385s-.866-.247-2.6-.866c-.866-.247-1.856-.619-3.094-1.114s-2.6-.866-4.084-1.609c-2.97-1.237-6.682-2.97-10.642-5.074-.99-.495-1.98-1.114-3.094-1.732-.99-.619-2.1-1.237-3.217-1.98a28.8,28.8,0,0,1-3.217-2.1c-.495-.371-1.114-.743-1.732-1.114-.247-.247-.619-.371-.866-.619a5.237,5.237,0,0,0-.866-.619A113.257,113.257,0,0,1,57.957,201,118.187,118.187,0,0,1,47.686,182.31,110.933,110.933,0,0,1,41.127,161.4,107.515,107.515,0,0,1,38.9,139.618a119.09,119.09,0,0,1,1.98-21.16A107.163,107.163,0,0,1,46.448,99.4a114.452,114.452,0,0,1,7.8-16.087,121.427,121.427,0,0,1,8.538-12.5c.742-.866,1.361-1.732,2.1-2.6.742-.742,1.361-1.609,1.98-2.351,1.237-1.485,2.6-2.722,3.712-3.96L72.187,60.3a14.836,14.836,0,0,1,1.485-1.361c.866-.866,1.732-1.609,2.351-2.227C77.508,55.595,78.251,55.1,78.251,55.1Z"
                          transform="translate(9.335 12.891)"/>
                    <path id="Path_776" data-name="Path 776" class="cls-3"
                          d="M47.908,31.924,58.674,42.566l-.247.247-.866.866c-.742.742-1.856,1.856-3.217,3.341C51.62,49.867,47.908,54.2,43.7,59.519A140.6,140.6,0,0,0,31.45,79.07a137.931,137.931,0,0,0-10.023,24.378,140.127,140.127,0,0,0-5.321,25.739,146.619,146.619,0,0,0-.619,22.893q.186,2.6.371,4.826c.124,1.485.371,2.97.495,4.331.247,2.722.742,5.074.99,7.053q.186,1.485.371,2.6t.371,1.856c.247.99.371,1.609.371,1.609L3.484,177.448s-.124-.619-.371-1.732c-.124-.619-.247-1.237-.495-2.1-.124-.866-.247-1.732-.495-2.846a78.14,78.14,0,0,1-1.114-7.8c-.124-1.485-.371-3.094-.495-4.826s-.247-3.465-.371-5.321a149.93,149.93,0,0,1,.742-25.368A159.3,159.3,0,0,1,6.7,98.993,153.91,153.91,0,0,1,17.714,72.017,168.8,168.8,0,0,1,31.326,50.362,172.522,172.522,0,0,1,43.082,36.5c1.485-1.609,2.722-2.846,3.589-3.712l.99-.99C47.908,32.047,47.908,31.924,47.908,31.924Z"
                          transform="translate(0.079 7.358)"/>
                    <path id="Path_777" data-name="Path 777" class="cls-3"
                          d="M195.1,235.035l-1.609-2.6s1.114-.619,3.094-1.856c.495-.247.99-.619,1.609-.99s1.237-.866,1.98-1.361l2.227-1.485c.742-.619,1.609-1.237,2.475-1.856a12.97,12.97,0,0,1,1.361-.99c.247-.124.495-.371.742-.495.247-.247.495-.371.619-.619.866-.743,1.856-1.609,2.846-2.475s1.98-1.856,2.97-2.722c.495-.495,1.114-.99,1.609-1.485s.99-1.114,1.485-1.609a99.65,99.65,0,0,0,12.5-15.716c.495-.742.99-1.609,1.485-2.351a24.538,24.538,0,0,0,1.361-2.475c.248-.371.495-.866.743-1.237l.371-.619.371-.619c.495-.866.866-1.732,1.361-2.6a6.63,6.63,0,0,0,.619-1.361c.247-.495.371-.866.619-1.361.371-.866.866-1.856,1.237-2.722.371-.99.742-1.856,1.114-2.846l1.114-2.97a105.588,105.588,0,0,0,5.569-25.739,102.623,102.623,0,0,0-1.485-28.09c-.247-1.114-.5-2.351-.743-3.465l-.247-.866c-.124-.247-.124-.619-.247-.866l-.495-1.732c-.619-2.351-1.361-4.579-2.1-6.93-.371-1.114-.866-2.227-1.238-3.465l-.619-1.732L237.05,103l-1.485-3.341-1.609-3.341a10.227,10.227,0,0,0-.866-1.609l-.866-1.609c-.619-1.114-1.237-2.1-1.856-3.217-1.361-2.1-2.6-4.207-4.084-6.063l-1.114-1.485-.495-.742-.619-.742c-.742-.99-1.485-1.856-2.227-2.846a6.485,6.485,0,0,0-1.237-1.361l-1.237-1.361c-.866-.866-1.609-1.856-2.475-2.722s-1.732-1.732-2.475-2.6c-.866-.866-1.732-1.609-2.6-2.475l-1.361-1.237-1.361-1.114c-.866-.742-1.856-1.485-2.722-2.351-1.98-1.361-3.712-2.97-5.692-4.207-.99-.619-1.856-1.361-2.97-1.98l-2.97-1.856c-.99-.619-1.98-1.114-2.97-1.732-.5-.247-.99-.619-1.485-.866l-.742-.371-.742-.371c-.99-.495-2.1-.99-3.094-1.485l-.742-.371-.743-.371a6.217,6.217,0,0,0-1.609-.619,7.569,7.569,0,0,0-1.485-.619l-.742-.371-.743-.247c-.99-.371-2.1-.742-3.094-1.114s-2.1-.742-3.094-1.114a29.863,29.863,0,0,0-3.094-.99,115.9,115.9,0,0,0-23.759-4.207,108.811,108.811,0,0,0-20.418.619c-.742.124-1.485.124-2.227.247s-1.485.247-2.1.371c-.742.124-1.361.247-2.1.371-.619.124-1.361.247-1.98.371l-1.856.371c-.248.124-.619.124-.866.247s-.619.124-.866.247c-1.114.247-2.227.619-3.341.866-.247.124-.495.124-.742.247s-.5.124-.743.247a6.977,6.977,0,0,0-1.485.495,21.326,21.326,0,0,0-2.6.866q-2.413.928-4.084,1.485c-1.114.371-1.856.742-2.475.99a7.357,7.357,0,0,1-.866.371L96.6,45.582s.248-.124.866-.371a23.965,23.965,0,0,1,2.6-.99c1.114-.371,2.475-.99,4.084-1.485.866-.247,1.732-.495,2.722-.866a6.976,6.976,0,0,0,1.485-.495c.247-.124.495-.124.742-.247s.495-.124.742-.247c1.114-.247,2.227-.619,3.465-.866.247-.124.619-.124.866-.247.371-.124.619-.124.99-.247.619-.124,1.237-.247,1.98-.371.619-.124,1.361-.247,1.98-.371.743-.124,1.361-.247,2.1-.371l2.227-.371,2.227-.371a113.856,113.856,0,0,1,20.913-.619,112.531,112.531,0,0,1,24.378,4.331,31.959,31.959,0,0,1,3.217.99,33.058,33.058,0,0,1,3.217,1.114,34.31,34.31,0,0,1,3.217,1.237l.742.247.742.371c.495.247,1.114.495,1.609.742s1.114.495,1.609.742l.742.371.743.371c.99.495,2.1.99,3.094,1.485l.743.371.742.371c.495.247.99.619,1.609.866.99.619,2.1,1.114,3.094,1.732s1.98,1.237,3.094,1.856c.99.619,1.98,1.361,2.97,1.98,1.98,1.361,3.96,2.846,5.94,4.331.99.742,1.856,1.609,2.846,2.351l1.361,1.237,1.361,1.237c.866.866,1.856,1.609,2.722,2.475s1.732,1.732,2.6,2.722c.866.866,1.732,1.856,2.475,2.722l1.238,1.361c.371.495.866.99,1.237,1.485.742.99,1.609,1.98,2.351,2.97l.619.742.5.742,1.114,1.485c1.485,1.98,2.846,4.207,4.207,6.311.619,1.114,1.237,2.227,1.856,3.217l.99,1.609a7.567,7.567,0,0,1,.866,1.732l1.732,3.341,1.485,3.465.742,1.732.619,1.732c.5,1.114.866,2.351,1.361,3.465.743,2.351,1.609,4.7,2.227,7.177l.495,1.856c.124.247.124.619.248.866l.247.866c.248,1.237.495,2.475.742,3.589a108.177,108.177,0,0,1,1.609,28.832,105.95,105.95,0,0,1-5.692,26.481l-1.114,2.97a30.2,30.2,0,0,1-1.237,2.97,28.318,28.318,0,0,0-1.237,2.846,14.524,14.524,0,0,1-.619,1.361c-.247.495-.495.866-.742,1.361-.495.866-.866,1.856-1.361,2.722l-.371.619-.371.619c-.248.371-.495.866-.742,1.237-.5.866-.99,1.732-1.485,2.475a15.754,15.754,0,0,1-1.609,2.351A105.957,105.957,0,0,1,218.489,216.1l-1.609,1.609c-.495.495-1.114.99-1.609,1.485-1.114.99-2.1,1.98-3.094,2.846s-1.98,1.732-2.97,2.475c-.247.247-.495.371-.742.619-.248.124-.5.371-.743.495a9.439,9.439,0,0,1-1.361.99c-.866.619-1.732,1.361-2.475,1.856-.866.619-1.609,1.114-2.351,1.609s-1.361.99-1.98,1.361-1.237.742-1.732.99A14.631,14.631,0,0,1,195.1,235.035Z"
                          transform="translate(23.036 8.55)"/>
                    <path id="Path_778" data-name="Path 778" class="cls-3"
                          d="M186.968,33.481,178.924,54.27s-.371-.124-.99-.371-1.485-.495-2.722-.866-2.6-.866-4.207-1.361l-2.6-.742a25.338,25.338,0,0,0-2.97-.619c-2.1-.495-4.331-.866-6.682-1.237-2.351-.247-4.95-.742-7.548-.866a105.942,105.942,0,0,0-16.582,0,101.123,101.123,0,0,0-29.946,7.3c-1.98.866-3.712,1.485-5.321,2.351-1.485.742-2.97,1.361-3.96,1.98-2.227,1.237-3.465,1.856-3.465,1.856L80.3,42.638s1.485-.866,4.207-2.227c1.361-.742,2.97-1.485,4.826-2.475s4.084-1.856,6.435-2.846l3.712-1.485c.619-.247,1.361-.495,1.98-.742s1.361-.495,2.1-.742c1.361-.495,2.846-.866,4.331-1.361.742-.247,1.485-.371,2.227-.619s1.609-.371,2.351-.619A127.861,127.861,0,0,1,132.52,26.18a123.438,123.438,0,0,1,20.294,0c3.217.247,6.311.619,9.281.99,2.97.495,5.692.99,8.291,1.609a30.443,30.443,0,0,1,3.589.866c1.114.371,2.227.619,3.217.866a44.552,44.552,0,0,1,5.2,1.609l3.341,1.114A8,8,0,0,1,186.968,33.481Z"
                          transform="translate(19.165 5.924)"/>
                    <path id="Path_779" data-name="Path 779" class="cls-4"
                          d="M143.641,230.592l-3.341-21.9a5.607,5.607,0,0,0,.99-.124c.619-.124,1.609-.248,2.846-.495s2.722-.5,4.331-.866c.866-.248,1.732-.371,2.722-.619s1.856-.495,2.97-.866c2.1-.495,4.207-1.361,6.559-2.1,2.227-.866,4.7-1.732,7.053-2.846a110.933,110.933,0,0,0,14.478-7.92,99.983,99.983,0,0,0,22.522-20.665c1.237-1.609,2.475-3.094,3.465-4.579.99-1.361,1.856-2.6,2.475-3.589,1.237-2.1,1.98-3.217,1.98-3.217l19.675,11.013s-.866,1.485-2.475,3.96c-.742,1.237-1.856,2.722-2.97,4.455a65.926,65.926,0,0,1-4.207,5.568c-.742.99-1.609,1.98-2.6,3.094-.495.495-.866,1.114-1.361,1.609a17.579,17.579,0,0,1-1.485,1.609c-.99,1.114-2.1,2.1-3.094,3.217a19.736,19.736,0,0,1-1.609,1.609c-.619.495-1.114,1.114-1.732,1.609a134.065,134.065,0,0,1-15.716,12.5,124.658,124.658,0,0,1-17.7,9.776c-2.97,1.361-5.816,2.475-8.662,3.589-2.846.99-5.445,1.856-7.92,2.6-1.237.371-2.475.743-3.589.99s-2.227.5-3.217.743c-2.1.495-3.836.866-5.321,1.114s-2.6.495-3.465.619C144.012,230.592,143.641,230.592,143.641,230.592Z"
                          transform="translate(33.412 37.989)"/>
                    <path id="Path_780" data-name="Path 780" class="cls-3"
                          d="M280.207,163.185l-7.3-.99a7.639,7.639,0,0,1,.124-1.114c0-.371.124-.866.124-1.361.124-.495.124-1.114.247-1.856q.186-2.042.371-5.2c0-.99.124-2.1.124-3.341a9.364,9.364,0,0,1,.124-1.856v-1.856a112.626,112.626,0,0,0-1.732-18.809,120.063,120.063,0,0,0-6.806-23.635A123.739,123.739,0,0,0,251,77.8a134.906,134.906,0,0,0-10.395-12.127l-1.485-1.485a14.831,14.831,0,0,0-1.485-1.361c-.99-.99-1.98-1.856-3.094-2.846-2.1-1.732-4.207-3.712-6.558-5.321-2.227-1.732-4.7-3.341-7.053-4.95-2.475-1.485-4.95-3.094-7.548-4.455l-1.98-1.114c-.619-.371-1.361-.619-1.98-.99-1.361-.619-2.6-1.361-3.96-1.98s-2.722-1.237-4.084-1.732c-.619-.371-1.361-.495-2.1-.866l-2.1-.742c-.742-.247-1.361-.495-2.1-.742l-2.1-.742c-1.485-.495-2.846-.99-4.331-1.361s-2.97-.866-4.455-1.237-2.97-.619-4.455-.99a128.335,128.335,0,0,0-18.19-2.351A122.5,122.5,0,0,0,125.278,34l-2.227.619-1.114.247-1.114.371c-1.485.495-2.846.866-4.331,1.361-1.361.495-2.846.99-4.207,1.485s-2.722,1.114-4.084,1.609c-.619.247-1.361.619-1.98.866l-.99.371-.99.495c-1.361.619-2.6,1.237-3.96,1.856-1.237.619-2.6,1.361-3.836,2.1a13.522,13.522,0,0,1-1.856.99l-1.856,1.114c-1.237.742-2.475,1.485-3.589,2.227s-2.351,1.609-3.465,2.351a33.321,33.321,0,0,0-3.341,2.475c-.495.371-1.114.866-1.609,1.237s-1.114.866-1.609,1.237c-.99.866-2.1,1.732-3.094,2.6-.247.247-.495.371-.742.619l-.742.742c-.5.495-.99.866-1.485,1.361-1.98,1.732-3.836,3.712-5.569,5.569a104.3,104.3,0,0,0-9.528,11.756c-1.485,1.98-2.722,3.96-3.96,5.94-.619.99-1.237,1.98-1.732,2.97-.619.99-1.114,1.98-1.732,2.97a108.973,108.973,0,0,0-9.281,22.769l-.742,2.6c-.247.866-.371,1.732-.619,2.6-.371,1.609-.866,3.217-1.114,4.826s-.619,3.094-.742,4.455c-.247,1.485-.371,2.846-.495,4.084,0,.371-.124.619-.124.99a2.725,2.725,0,0,1-.124.99c0,.619-.124,1.237-.124,1.856a30.468,30.468,0,0,0-.247,3.217c-.124,1.98-.124,3.712-.124,5.2,0,2.846.124,4.331.124,4.331l-7.3.248s0-1.609-.124-4.579c0-1.485.124-3.341.247-5.445,0-1.114.124-2.227.247-3.465,0-.619.124-1.237.124-1.856a2.725,2.725,0,0,1,.124-.99c0-.371.124-.619.124-.99.124-1.361.371-2.846.619-4.331s.495-3.094.866-4.7c.247-1.609.742-3.341,1.114-5.074.247-.866.371-1.732.619-2.722.247-.866.495-1.856.742-2.722a118.5,118.5,0,0,1,9.9-24.13c.619-1.114,1.237-2.1,1.856-3.217s1.237-2.1,1.856-3.217c1.361-2.1,2.722-4.331,4.207-6.311a118.072,118.072,0,0,1,10.147-12.5c1.98-1.98,3.836-4.084,5.94-5.94a19.029,19.029,0,0,1,1.609-1.485l.742-.742a5.383,5.383,0,0,1,.866-.742c1.114-.99,2.227-1.856,3.341-2.846a21.154,21.154,0,0,1,1.732-1.361c.619-.495,1.114-.866,1.732-1.361a37.9,37.9,0,0,1,3.589-2.6l3.712-2.6c1.237-.866,2.6-1.609,3.836-2.351.619-.371,1.237-.742,1.98-1.237.619-.371,1.361-.742,1.98-1.114l4.084-2.227c1.361-.619,2.846-1.361,4.207-1.98l.99-.495,1.114-.495c.742-.247,1.485-.619,2.1-.866,1.485-.619,2.846-1.237,4.331-1.732s2.97-1.114,4.455-1.609,2.97-.99,4.579-1.361l1.114-.371,1.114-.247,2.351-.619a129.276,129.276,0,0,1,38.485-3.836,141.921,141.921,0,0,1,19.3,2.475c1.609.371,3.217.742,4.7,1.114,1.609.371,3.094.866,4.7,1.237s3.094.99,4.579,1.361l2.351.742c.742.247,1.485.619,2.227.866l2.227.866a16.525,16.525,0,0,1,2.227.866c1.485.619,2.97,1.237,4.331,1.856a44.456,44.456,0,0,1,4.207,2.1,11.317,11.317,0,0,1,2.1,1.114c.743.371,1.361.742,2.1,1.114,2.722,1.485,5.321,3.094,8.043,4.7,2.475,1.732,5.074,3.465,7.425,5.321,2.475,1.732,4.7,3.712,7.053,5.692,1.114.99,2.227,1.98,3.217,2.97.495.495,1.114.99,1.609,1.485a19.031,19.031,0,0,1,1.485,1.609,133.591,133.591,0,0,1,11.137,12.869,130.093,130.093,0,0,1,15.344,26.976,128.628,128.628,0,0,1,7.3,25,115.751,115.751,0,0,1,1.856,20.047v1.98a11.328,11.328,0,0,1-.124,1.98c0,1.237-.124,2.351-.124,3.465-.124,2.1-.371,3.96-.495,5.445a9.624,9.624,0,0,1-.247,1.98c-.124.619-.124.99-.248,1.361C280.331,162.814,280.207,163.185,280.207,163.185Z"
                          transform="translate(7.103 5.287)"/>
                    <path id="Path_781" data-name="Path 781" class="cls-3"
                          d="M230.928,30.281l-9.9,12.993-.247-.247a8.434,8.434,0,0,0-.866-.619c-.742-.495-1.732-1.237-3.094-2.1a17.365,17.365,0,0,0-2.227-1.485c-.866-.495-1.732-1.114-2.722-1.732s-1.98-1.237-3.094-1.856-2.351-1.237-3.589-1.98a13.525,13.525,0,0,0-1.856-.99c-.619-.371-1.361-.619-1.98-.99-1.361-.619-2.722-1.361-4.207-2.1-2.97-1.237-6.063-2.722-9.4-3.836a140.027,140.027,0,0,0-21.16-6.187,137.533,137.533,0,0,0-21.9-2.722c-1.732,0-3.465-.124-5.2-.124h-7.3c-.742,0-1.609.124-2.351.124-1.485.124-2.97.124-4.455.247-1.361.124-2.722.247-4.084.495a31.372,31.372,0,0,0-3.589.495c-2.227.371-4.207.619-5.816.99-3.217.619-5.074,1.114-5.074,1.114L103.1,4.047s2.1-.371,5.692-1.237c1.856-.371,4.084-.619,6.558-1.114a36.918,36.918,0,0,1,4.084-.495c1.485-.124,2.97-.371,4.455-.495,1.609-.124,3.217-.247,4.95-.371.866,0,1.732-.124,2.6-.124h2.722c1.856,0,3.712-.124,5.568,0s3.836.124,5.816.247a154.3,154.3,0,0,1,24.5,3.094,138.164,138.164,0,0,1,23.635,6.93c3.712,1.361,7.177,2.846,10.518,4.331,1.609.742,3.217,1.609,4.7,2.351l2.227,1.114c.743.371,1.361.742,2.1,1.114,1.361.742,2.722,1.485,3.96,2.227s2.351,1.485,3.465,2.1,2.1,1.237,3.094,1.856c.866.619,1.732,1.237,2.475,1.732,1.485.99,2.722,1.856,3.465,2.351a8.439,8.439,0,0,1,.866.619C230.8,30.157,230.928,30.281,230.928,30.281Z"
                          transform="translate(24.579 -0.156)"/>
                    <path id="Path_782" data-name="Path 782" class="cls-3"
                          d="M204.986,231.782l-8.786-9.9.247-.247a3.947,3.947,0,0,0,.866-.743c.743-.619,1.732-1.609,2.97-2.722a142.432,142.432,0,0,0,10.023-10.395,135.271,135.271,0,0,0,11.88-16.458,134.97,134.97,0,0,0,10.147-20.789,127.078,127.078,0,0,0,6.063-22.274,137.142,137.142,0,0,0,1.856-20.047V124c0-1.361-.124-2.6-.124-3.836-.124-2.351-.371-4.455-.495-6.187-.124-.866-.124-1.609-.247-2.227s-.124-1.237-.248-1.732c-.124-.866-.247-1.361-.247-1.361l13.241-1.856a14,14,0,0,1,.247,1.485c.124.5.124,1.114.248,1.856s.124,1.609.247,2.475a51.346,51.346,0,0,1,.495,6.806c.124,1.361.124,2.722.247,4.207v4.7a149.584,149.584,0,0,1-1.98,22.15,143,143,0,0,1-6.682,24.625,146.741,146.741,0,0,1-11.137,23.017A144.581,144.581,0,0,1,220.7,216.314a150.6,150.6,0,0,1-11.013,11.508c-1.485,1.237-2.6,2.351-3.341,2.97-.371.371-.743.619-.866.742A1.354,1.354,0,0,0,204.986,231.782Z"
                          transform="translate(46.685 25.167)"/>
                    <path id="Path_783" data-name="Path 783" class="cls-3"
                          d="M68.3,232.383,76.467,218.4a.383.383,0,0,1,.247.124,7.1,7.1,0,0,1,.866.495c.742.371,1.98.99,3.341,1.732l2.475,1.237c.866.371,1.856.866,2.97,1.361q1.485.742,3.341,1.485l3.712,1.485a13.737,13.737,0,0,1,1.98.866c.742.247,1.361.495,2.1.742,1.485.495,2.97.99,4.455,1.609,3.094.866,6.311,1.98,9.776,2.722a140.341,140.341,0,0,0,43.929,3.712c1.732-.124,3.465-.247,5.2-.495s3.341-.371,4.95-.619c.742-.124,1.609-.247,2.351-.371l2.227-.371c1.485-.247,2.97-.495,4.331-.743,1.361-.371,2.722-.619,3.96-.866a30.426,30.426,0,0,0,3.589-.866c2.227-.619,4.084-1.114,5.692-1.609,3.094-.99,4.95-1.609,4.95-1.609l5.569,15.221s-1.98.619-5.445,1.856c-1.732.495-3.96,1.114-6.435,1.856-1.237.371-2.6.619-3.96.99s-2.846.619-4.455.99-3.217.619-4.826.866a19.215,19.215,0,0,0-2.6.495l-2.6.371c-1.856.247-3.589.495-5.568.742-1.856.124-3.836.371-5.816.495a165.888,165.888,0,0,1-24.749-.248,139.24,139.24,0,0,1-24.378-4.083c-3.836-.866-7.425-1.98-10.89-3.094-1.732-.619-3.341-1.114-4.95-1.732a18.026,18.026,0,0,1-2.351-.866c-.742-.247-1.485-.619-2.227-.866-1.485-.619-2.846-1.114-4.207-1.732s-2.6-1.114-3.712-1.732c-1.114-.495-2.227-.99-3.217-1.485s-1.856-.99-2.722-1.361c-1.609-.866-2.846-1.485-3.836-1.98l-.99-.495Z"
                          transform="translate(16.316 51.666)"/>
                    <path id="Path_784" data-name="Path 784" class="cls-3"
                          d="M200.17,153.184l-9.4-2.722v-.247a5.36,5.36,0,0,0,.124-.619,18.013,18.013,0,0,0,.5-2.1l.371-1.485.371-1.856c.124-.619.248-1.361.371-2.1s.248-1.485.371-2.351a4.4,4.4,0,0,1,.247-1.237c0-.371.124-.866.124-1.361.124-.866.124-1.856.247-2.722.124-1.856.248-3.836.248-5.94a77.112,77.112,0,0,0-.99-12.869,98.951,98.951,0,0,0-2.97-12.622c-.371-.99-.619-1.98-.99-2.846-.371-.99-.743-1.856-1.114-2.722a12.833,12.833,0,0,0-.5-1.237c-.247-.371-.371-.866-.619-1.237-.371-.866-.742-1.609-1.114-2.351s-.742-1.485-1.114-2.1-.619-1.361-.99-1.856c-.619-1.114-1.237-2.227-1.732-2.97a23.972,23.972,0,0,1-1.609-2.6l8.167-5.321s.619.99,1.856,2.846c.619.866,1.237,2.1,1.98,3.341.371.619.743,1.361,1.114,2.1s.743,1.485,1.237,2.351a24.734,24.734,0,0,0,1.238,2.6c.247.495.371.866.619,1.361s.371.99.619,1.485c.371.99.866,1.98,1.237,3.094s.743,2.1,1.114,3.217a97.922,97.922,0,0,1,3.341,14.107,95.935,95.935,0,0,1,1.114,14.354c0,2.351-.124,4.579-.247,6.682-.124.99-.248,2.1-.371,3.094,0,.495-.124.99-.124,1.485-.124.495-.124.99-.247,1.361l-.371,2.6c-.124.866-.371,1.609-.495,2.351s-.248,1.361-.371,2.1a7.093,7.093,0,0,1-.495,1.732c-.247.99-.495,1.856-.619,2.475a1.345,1.345,0,0,0-.124.619Z"
                          transform="translate(42.839 18.257)"/>
                    <path id="Path_785" data-name="Path 785" class="cls-3"
                          d="M19.8,146.741,36.011,143.4s.247.99.619,2.6c.124.866.495,1.856.742,2.97.371,1.114.619,2.475,1.114,3.836a113.979,113.979,0,0,0,8.043,19.675A127.876,127.876,0,0,0,57.79,190.547c.866,1.114,1.732,2.227,2.475,3.094s1.361,1.732,1.98,2.351c1.114,1.237,1.732,1.98,1.732,1.98L51.355,208.49s-.742-.866-1.98-2.227c-.619-.743-1.361-1.609-2.227-2.722-.866-.99-1.732-2.227-2.846-3.589a146.974,146.974,0,0,1-12.746-20.418,138.042,138.042,0,0,1-9.033-22.274c-.495-1.609-.866-2.97-1.237-4.331-.371-1.237-.619-2.351-.866-3.341C20.047,147.731,19.8,146.741,19.8,146.741Z"
                          transform="translate(4.8 33.857)"/>
                    <path id="Path_786" data-name="Path 786" class="cls-3"
                          d="M241.835,98.235l-8.786,2.6s-.619-2.1-1.732-5.2c-.619-1.485-1.237-3.341-1.98-5.2s-1.732-3.836-2.6-5.816l-2.846-5.692c-.99-1.856-1.98-3.465-2.722-4.826a27.37,27.37,0,0,0-2.1-3.341,6.335,6.335,0,0,0-.866-1.237L226,64.7a14.384,14.384,0,0,1,.866,1.361c.5.866,1.361,2.1,2.227,3.589s1.856,3.341,2.97,5.2c.99,1.98,2.1,4.084,3.094,6.187s1.98,4.207,2.722,6.311,1.485,3.96,2.1,5.569C241.217,96.131,241.835,98.235,241.835,98.235Z"
                          transform="translate(51.909 15.17)"/>
                    <path id="Path_787" data-name="Path 787" class="cls-3"
                          d="M171.97,3.553l-.742,8.91s-.742,0-2.227-.124c-.742,0-1.609-.124-2.6-.124s-2.227-.124-3.589-.124c-2.6-.124-5.816,0-9.528,0-1.856.124-3.836.247-5.816.371-.99,0-2.1.247-3.217.247l-3.341.371a141.979,141.979,0,0,0-30.194,7.053A142.638,142.638,0,0,0,52.432,58.619,140.687,140.687,0,0,0,34.489,83.368c-.495.99-1.114,1.856-1.609,2.846s-.99,1.856-1.485,2.722-.866,1.732-1.361,2.6l-1.114,2.6c-.742,1.609-1.485,3.217-2.1,4.579-.619,1.485-1.114,2.846-1.609,3.96a9.7,9.7,0,0,0-.619,1.732,10.392,10.392,0,0,0-.495,1.485c-.371.99-.619,1.732-.866,2.475-.495,1.361-.742,1.98-.742,1.98l-8.786-2.6s.247-.742.742-2.1c.247-.742.495-1.609.866-2.6a8.592,8.592,0,0,1,.619-1.609l.742-1.856c.495-1.237,1.114-2.722,1.732-4.207.619-1.609,1.361-3.217,2.227-4.95.371-.866.742-1.732,1.237-2.722.495-.866.99-1.856,1.485-2.846l1.485-2.97c.495-.99,1.114-1.98,1.732-3.094A157.034,157.034,0,0,1,45.626,52.432,150.983,150.983,0,0,1,74.087,28.178a157.928,157.928,0,0,1,33.659-16.706A154.082,154.082,0,0,1,139.8,3.924c1.237-.124,2.351-.247,3.589-.371l3.341-.371c2.227-.124,4.331-.247,6.187-.371,3.96,0,7.3-.124,10.147,0,1.361,0,2.722.124,3.712.124,1.114,0,1.98.124,2.722.124C171.227,3.429,171.97,3.553,171.97,3.553Z"
                          transform="translate(3.351 0.462)"/>
                    <path id="Path_788" data-name="Path 788" class="cls-3"
                          d="M236.811,212.5l-7.92-4.455s.371-.619.99-1.732c.371-.619.742-1.237,1.237-2.1s.99-1.856,1.485-2.846c.5-1.114,1.238-2.227,1.856-3.589s1.237-2.722,1.98-4.331c.124-.371.371-.742.495-1.114s.371-.866.495-1.238c.371-.866.619-1.732.99-2.6a58.376,58.376,0,0,0,1.98-5.569,128.5,128.5,0,0,0,5.94-27.6c.247-2.6.495-5.2.495-7.8,0-1.361.124-2.722.124-3.96v-6.063c0-.619-.124-1.361-.124-2.1-.124-1.361-.124-2.722-.247-4.084s-.371-2.722-.495-4.084l-.247-2.1-.371-2.1-.619-4.084c-.247-1.361-.619-2.722-.866-4.084l-.5-1.98c-.124-.619-.371-1.361-.495-1.98-.371-1.361-.742-2.6-1.114-3.96s-.866-2.6-1.237-3.836c-.247-.619-.371-1.237-.619-1.856l-.371-.99-.371-.99L237.8,95.561l-.742-1.856c-.247-.619-.495-1.237-.742-1.732a130.378,130.378,0,0,0-14.107-24.625c-.619-.866-1.237-1.732-1.856-2.475L218.5,62.645c-.619-.742-1.114-1.485-1.732-2.227s-1.114-1.361-1.732-1.98c-1.114-1.237-2.1-2.475-3.217-3.589L208.969,52c-1.732-1.732-3.094-2.97-4.084-3.96-.99-.866-1.485-1.361-1.485-1.361L209.587,40s.495.495,1.609,1.485c.99.99,2.6,2.351,4.331,4.207.866.99,1.98,1.98,2.97,3.094,1.114,1.114,2.227,2.475,3.341,3.836.619.742,1.237,1.361,1.856,2.1s1.237,1.485,1.856,2.351c.619.742,1.237,1.609,1.98,2.475.619.866,1.237,1.732,1.98,2.6a140.905,140.905,0,0,1,15.1,26.358c.248.619.619,1.237.866,1.856s.495,1.361.742,1.98c.5,1.361.99,2.6,1.485,3.96l.371.99.371.99a13.523,13.523,0,0,1,.619,2.1c.495,1.361.99,2.722,1.361,4.084s.742,2.846,1.114,4.207c.124.742.371,1.361.495,2.1l.5,2.1c.248,1.485.619,2.846.866,4.331l.742,4.331.371,2.227.247,2.227c.124,1.485.371,2.97.495,4.331.124,1.485.247,2.97.247,4.331,0,.742.124,1.485.124,2.227v2.227c0,1.485,0,2.846.124,4.331,0,1.485-.124,2.846-.124,4.331,0,2.846-.371,5.692-.619,8.415a141.017,141.017,0,0,1-6.311,29.451c-.742,2.1-1.361,4.084-2.1,5.94-.371.99-.742,1.856-1.114,2.722-.124.495-.371.866-.495,1.361a5.783,5.783,0,0,1-.619,1.238c-.743,1.609-1.485,3.217-2.1,4.579s-1.361,2.722-1.98,3.836-1.114,2.227-1.609,3.094a22.286,22.286,0,0,0-1.237,2.227A6.32,6.32,0,0,1,236.811,212.5Z"
                          transform="translate(48.395 9.305)"/>
                    <path id="Path_789" data-name="Path 789" class="cls-3"
                          d="M44.932,60.9l7.548,5.074a7.575,7.575,0,0,0-.619.742,18.121,18.121,0,0,0-1.609,2.351c-.619,1.114-1.485,2.351-2.475,3.836-.99,1.609-1.98,3.341-3.094,5.445a129.5,129.5,0,0,0-7.053,15.221,120.53,120.53,0,0,0-5.94,20.913A128.24,128.24,0,0,0,29.464,140.1a108.168,108.168,0,0,0,1.114,13.983,36.266,36.266,0,0,0,.619,3.589,9.552,9.552,0,0,1,.247,1.856l.371,1.856c.247,1.237.495,2.351.742,3.589l.371,1.856c.124.619.371,1.237.495,1.856.371,1.237.619,2.351.99,3.589s.742,2.351,1.114,3.589c.247.619.371,1.238.619,1.856l.247.866.371.866c.495,1.237.866,2.351,1.361,3.589s.99,2.351,1.485,3.589.99,2.351,1.609,3.589c.619,1.114,1.237,2.351,1.732,3.465.619,1.114,1.114,2.351,1.856,3.465,1.361,2.227,2.6,4.579,4.084,6.806.742,1.114,1.361,2.227,2.227,3.341.742,1.114,1.609,2.1,2.351,3.217l1.114,1.609a18.186,18.186,0,0,1,1.237,1.609l2.475,3.094,2.6,2.97c.866.99,1.732,1.98,2.722,2.97a129.619,129.619,0,0,0,81.8,39.351,131.72,131.72,0,0,0,26.234-.247,138.954,138.954,0,0,0,21.779-4.207c3.094-.99,6.063-1.856,8.786-2.97.619-.247,1.361-.495,1.98-.743l1.856-.742c1.237-.495,2.351-.99,3.465-1.485a8.592,8.592,0,0,1,1.609-.619l1.485-.743c.99-.495,1.856-.866,2.722-1.237a40.229,40.229,0,0,0,4.084-2.1c2.227-1.238,3.465-1.856,3.465-1.856l4.7,7.672s-1.237.742-3.589,1.98c-1.237.619-2.6,1.485-4.455,2.351-.866.371-1.856.866-2.846,1.361-.495.247-.99.495-1.609.742-.495.248-1.114.5-1.732.742-1.114.495-2.351.99-3.712,1.609-.619.247-1.361.5-1.98.743-.742.247-1.361.495-2.1.742-2.846,1.114-6.063,2.1-9.4,3.094a142.417,142.417,0,0,1-23.388,4.579,141.085,141.085,0,0,1-28.09.247,138.211,138.211,0,0,1-30.689-6.311,136.56,136.56,0,0,1-56.923-35.886,35.239,35.239,0,0,1-2.846-3.217c-.99-1.114-1.98-2.1-2.846-3.217l-2.722-3.341c-.495-.619-.866-1.114-1.361-1.732l-1.237-1.732c-.866-1.114-1.609-2.351-2.475-3.465-.742-1.237-1.609-2.351-2.351-3.589-1.609-2.351-2.97-4.826-4.331-7.3-.742-1.237-1.361-2.475-1.98-3.712L33.053,193.8c-.619-1.238-1.114-2.6-1.732-3.836a35.637,35.637,0,0,1-1.609-3.836c-.495-1.237-.99-2.6-1.485-3.836l-.371-.99-.371-.99c-.247-.619-.371-1.237-.619-1.98-.371-1.237-.866-2.6-1.237-3.836-.371-1.361-.742-2.6-1.114-3.836-.124-.619-.371-1.237-.495-1.98-.124-.619-.247-1.237-.371-1.98-.247-1.237-.619-2.6-.866-3.836-.124-.619-.247-1.237-.371-1.98-.124-.619-.247-1.237-.371-1.98-.247-1.237-.495-2.6-.619-3.836A125.606,125.606,0,0,1,20.307,140.1a129.158,129.158,0,0,1,2.351-27.471A134.985,134.985,0,0,1,36.642,73.893c1.237-2.227,2.351-4.084,3.341-5.816,1.114-1.609,1.98-3.094,2.722-4.207s1.361-1.98,1.732-2.475A1.737,1.737,0,0,0,44.932,60.9Z"
                          transform="translate(4.911 14.268)"/>
                    <path id="Path_790" data-name="Path 790" class="cls-3"
                          d="M237.336,117.538l-8.91,2.1s-.124-.495-.371-1.361a16.156,16.156,0,0,1-.371-1.609,19.087,19.087,0,0,0-.619-2.1c-.248-.742-.495-1.609-.866-2.6a6.976,6.976,0,0,0-.495-1.485c-.248-.495-.371-.99-.619-1.609-.371-1.114-.866-2.227-1.361-3.465s-1.114-2.475-1.609-3.712a112.865,112.865,0,0,0-9.9-16.706,109.188,109.188,0,0,0-14.973-16.458,105.834,105.834,0,0,0-18.314-12.746,102.478,102.478,0,0,0-17.943-7.8,17.623,17.623,0,0,0-1.98-.619,11.585,11.585,0,0,0-1.98-.495c-1.237-.371-2.475-.742-3.589-.99-2.351-.495-4.207-.99-5.94-1.237-1.609-.247-2.97-.495-3.836-.619a10.714,10.714,0,0,0-1.361-.124L143.537,35a14.01,14.01,0,0,0,1.485.247c.99.124,2.351.371,4.207.742,1.856.247,3.96.866,6.435,1.361,1.237.247,2.6.742,3.96,1.114.742.247,1.361.371,2.1.619l2.227.742a120.838,120.838,0,0,1,19.552,8.415A111.1,111.1,0,0,1,230.53,98.357l1.856,4.084c.495,1.237.99,2.6,1.485,3.712a9.7,9.7,0,0,1,.619,1.732,8,8,0,0,1,.495,1.609c.371.99.619,1.98.866,2.846a22.308,22.308,0,0,1,.619,2.351c.124.619.371,1.237.495,1.732A9.629,9.629,0,0,1,237.336,117.538Z"
                          transform="translate(33.887 8.118)"/>
                    <path id="Path_791" data-name="Path 791" class="cls-4"
                          d="M188.724,27.185l-9.033,20.294a5.2,5.2,0,0,0-.619-.247c-.371-.124-.99-.495-1.732-.742s-1.732-.619-2.846-1.114c-.495-.247-1.114-.371-1.732-.619s-1.237-.371-1.98-.619a119.656,119.656,0,0,0-20.294-4.826A128.191,128.191,0,0,0,129.574,38.2c-2.846.247-5.2.247-6.93.495-1.609.124-2.6.247-2.6.247L117.2,16.914s1.114-.124,3.094-.371,4.826-.371,8.291-.619c1.732-.124,3.589-.124,5.569-.124h2.97c.99,0,2.1.124,3.094.124a127.8,127.8,0,0,1,13.364,1.237c1.114.124,2.227.371,3.341.495,1.114.247,2.227.371,3.341.619,1.114.124,2.227.495,3.217.619,1.114.247,2.1.495,3.217.742.99.247,2.1.495,3.094.742s1.98.495,2.846.742c.495.124.99.247,1.361.371a6.033,6.033,0,0,1,1.361.495c.866.247,1.732.619,2.475.866.866.247,1.609.495,2.351.742s1.361.495,2.1.742c1.237.495,2.475.866,3.341,1.237.99.371,1.609.742,2.1.866A6.805,6.805,0,0,0,188.724,27.185Z"
                          transform="translate(27.927 3.559)"/>
                </g>
            </g>
        </g>
    </g>
</svg>
